<?xml version="1.0" encoding="UTF-8" standalone="no"?>
<!DOCTYPE svg PUBLIC "-//W3C//DTD SVG 1.1//EN"
 "http://www.w3.org/Graphics/SVG/1.1/DTD/svg11.dtd">
<!-- Generated by graphviz version 2.40.1 (20161225.0304)
 -->
<!-- Title: dependencies Pages: 1 -->
<svg width="762pt" height="284pt"
 viewBox="0.00 0.00 762.00 284.00" xmlns="http://www.w3.org/2000/svg" xmlns:xlink="http://www.w3.org/1999/xlink">
<g id="graph0" class="graph" transform="scale(1 1) rotate(0) translate(4 280)">
<title>dependencies</title>
<polygon fill="#ffffff" stroke="transparent" points="-4,4 -4,-280 758,-280 758,4 -4,4"/>
<text text-anchor="start" x="356.0091" y="-42.4" font-family="sans-serif" font-weight="bold" font-size="14.00" fill="#000000">Legend</text>
<polygon fill="#ffffb3" stroke="transparent" points="143,-10 143,-30 163,-30 163,-10 143,-10"/>
<text text-anchor="start" x="166.629" y="-15.4" font-family="sans-serif" font-size="14.00" fill="#000000"> &#160;Declarations</text>
<polygon fill="#8dd3c7" stroke="transparent" points="256,-10 256,-30 276,-30 276,-10 256,-10"/>
<text text-anchor="start" x="279.7251" y="-15.4" font-family="sans-serif" font-size="14.00" fill="#000000"> &#160;Module</text>
<polygon fill="#80b1d3" stroke="transparent" points="342,-10 342,-30 362,-30 362,-10 342,-10"/>
<text text-anchor="start" x="365.7812" y="-15.4" font-family="sans-serif" font-size="14.00" fill="#000000"> &#160;Bootstrap</text>
<polygon fill="#fdb462" stroke="transparent" points="439,-10 439,-30 459,-30 459,-10 439,-10"/>
<text text-anchor="start" x="462.6732" y="-15.4" font-family="sans-serif" font-size="14.00" fill="#000000"> &#160;Providers</text>
<polygon fill="#fb8072" stroke="transparent" points="535,-10 535,-30 555,-30 555,-10 535,-10"/>
<text text-anchor="start" x="558.7258" y="-15.4" font-family="sans-serif" font-size="14.00" fill="#000000"> &#160;Exports</text>
<g id="clust1" class="cluster">
<title>cluster_UsersModule</title>
<polygon fill="none" stroke="#000000" stroke-dasharray="1,5" points="8,-70 8,-268 746,-268 746,-70 8,-70"/>
</g>
<g id="clust3" class="cluster">
<title>cluster_UsersModule_imports</title>
<polygon fill="none" stroke="#000000" points="164,-78 164,-130 738,-130 738,-78 164,-78"/>
</g>
<g id="clust4" class="cluster">
<title>cluster_UsersModule_exports</title>
<polygon fill="none" stroke="#000000" points="352,-208 352,-260 462,-260 462,-208 352,-208"/>
</g>
<g id="clust6" class="cluster">
<title>cluster_UsersModule_providers</title>
<polygon fill="none" stroke="#000000" points="16,-78 16,-130 156,-130 156,-78 16,-78"/>
</g>
<!-- AuthModule -->
<g id="node1" class="node">
<title>AuthModule</title>
<polygon fill="#8dd3c7" stroke="#000000" points="729.5482,-122 726.5482,-126 705.5482,-126 702.5482,-122 642.4518,-122 642.4518,-86 729.5482,-86 729.5482,-122"/>
<text text-anchor="middle" x="686" y="-99.8" font-family="Times,serif" font-size="14.00" fill="#000000">AuthModule</text>
</g>
<!-- UsersModule -->
<g id="node6" class="node">
<title>UsersModule</title>
<polygon fill="#8dd3c7" stroke="#000000" points="452.9218,-187 449.9218,-191 428.9218,-191 425.9218,-187 361.0782,-187 361.0782,-151 452.9218,-151 452.9218,-187"/>
<text text-anchor="middle" x="407" y="-164.8" font-family="Times,serif" font-size="14.00" fill="#000000">UsersModule</text>
</g>
<!-- AuthModule&#45;&gt;UsersModule -->
<g id="edge1" class="edge">
<title>AuthModule&#45;&gt;UsersModule</title>
<path fill="none" stroke="#000000" d="M686,-122.2843C686,-143.3211 686,-175 686,-175 686,-175 462.7588,-175 462.7588,-175"/>
<polygon fill="#000000" stroke="#000000" points="462.7588,-171.5001 452.7588,-175 462.7587,-178.5001 462.7588,-171.5001"/>
</g>
<!-- FilesModule -->
<g id="node2" class="node">
<title>FilesModule</title>
<polygon fill="#8dd3c7" stroke="#000000" points="624.2731,-122 621.2731,-126 600.2731,-126 597.2731,-122 537.7269,-122 537.7269,-86 624.2731,-86 624.2731,-122"/>
<text text-anchor="middle" x="581" y="-99.8" font-family="Times,serif" font-size="14.00" fill="#000000">FilesModule</text>
</g>
<!-- FilesModule&#45;&gt;UsersModule -->
<g id="edge2" class="edge">
<title>FilesModule&#45;&gt;UsersModule</title>
<path fill="none" stroke="#000000" d="M581,-122.0225C581,-139.3734 581,-163 581,-163 581,-163 462.7165,-163 462.7165,-163"/>
<polygon fill="#000000" stroke="#000000" points="462.7165,-159.5001 452.7165,-163 462.7164,-166.5001 462.7165,-159.5001"/>
</g>
<!-- FoldersModule -->
<g id="node3" class="node">
<title>FoldersModule</title>
<polygon fill="#8dd3c7" stroke="#000000" points="519.5438,-122 516.5438,-126 495.5438,-126 492.5438,-122 418.4562,-122 418.4562,-86 519.5438,-86 519.5438,-122"/>
<text text-anchor="middle" x="469" y="-99.8" font-family="Times,serif" font-size="14.00" fill="#000000">FoldersModule</text>
</g>
<!-- FoldersModule&#45;&gt;UsersModule -->
<g id="edge3" class="edge">
<title>FoldersModule&#45;&gt;UsersModule</title>
<path fill="none" stroke="#000000" d="M435.4695,-122.1061C435.4695,-122.1061 435.4695,-140.991 435.4695,-140.991"/>
<polygon fill="#000000" stroke="#000000" points="431.9696,-140.9909 435.4695,-150.991 438.9696,-140.991 431.9696,-140.9909"/>
</g>
<!-- SessionsModule -->
<g id="node4" class="node">
<title>SessionsModule</title>
<polygon fill="#8dd3c7" stroke="#000000" points="399.7716,-122 396.7716,-126 375.7716,-126 372.7716,-122 292.2284,-122 292.2284,-86 399.7716,-86 399.7716,-122"/>
<text text-anchor="middle" x="346" y="-99.8" font-family="Times,serif" font-size="14.00" fill="#000000">SessionsModule</text>
</g>
<!-- SessionsModule&#45;&gt;UsersModule -->
<g id="edge4" class="edge">
<title>SessionsModule&#45;&gt;UsersModule</title>
<path fill="none" stroke="#000000" d="M380.5877,-122.1061C380.5877,-122.1061 380.5877,-140.991 380.5877,-140.991"/>
<polygon fill="#000000" stroke="#000000" points="377.0877,-140.9909 380.5877,-150.991 384.0877,-140.991 377.0877,-140.9909"/>
</g>
<!-- StorageModule -->
<g id="node5" class="node">
<title>StorageModule</title>
<polygon fill="#8dd3c7" stroke="#000000" points="274.3133,-122 271.3133,-126 250.3133,-126 247.3133,-122 171.6867,-122 171.6867,-86 274.3133,-86 274.3133,-122"/>
<text text-anchor="middle" x="223" y="-99.8" font-family="Times,serif" font-size="14.00" fill="#000000">StorageModule</text>
</g>
<!-- StorageModule&#45;&gt;UsersModule -->
<g id="edge5" class="edge">
<title>StorageModule&#45;&gt;UsersModule</title>
<path fill="none" stroke="#000000" d="M223,-122.0225C223,-139.3734 223,-163 223,-163 223,-163 351.0437,-163 351.0437,-163"/>
<polygon fill="#000000" stroke="#000000" points="351.0437,-166.5001 361.0437,-163 351.0436,-159.5001 351.0437,-166.5001"/>
</g>
<!-- UsersService  -->
<g id="node7" class="node">
<title>UsersService </title>
<polygon fill="#fb8072" stroke="#000000" points="453.8493,-252 360.1507,-252 360.1507,-216 453.8493,-216 453.8493,-252"/>
<text text-anchor="middle" x="407" y="-229.8" font-family="Times,serif" font-size="14.00" fill="#000000">UsersService </text>
</g>
<!-- UsersModule&#45;&gt;UsersService  -->
<g id="edge6" class="edge">
<title>UsersModule&#45;&gt;UsersService </title>
<path fill="none" stroke="#000000" stroke-dasharray="5,2" d="M407,-187.1061C407,-187.1061 407,-205.991 407,-205.991"/>
<polygon fill="#000000" stroke="#000000" points="403.5001,-205.9909 407,-215.991 410.5001,-205.991 403.5001,-205.9909"/>
</g>
<!-- UsersService -->
<g id="node8" class="node">
<title>UsersService</title>
<ellipse fill="#fdb462" stroke="#000000" cx="86" cy="-104" rx="61.9519" ry="18"/>
<text text-anchor="middle" x="86" y="-99.8" font-family="Times,serif" font-size="14.00" fill="#000000">UsersService</text>
</g>
<!-- UsersService&#45;&gt;UsersModule -->
<g id="edge7" class="edge">
<title>UsersService&#45;&gt;UsersModule</title>
<path fill="none" stroke="#000000" d="M86,-122.2843C86,-143.3211 86,-175 86,-175 86,-175 351.0085,-175 351.0085,-175"/>
<polygon fill="#000000" stroke="#000000" points="351.0086,-178.5001 361.0085,-175 351.0085,-171.5001 351.0086,-178.5001"/>
</g>
</g>
</svg>
