<?xml version="1.0" encoding="UTF-8" standalone="no"?>
<!DOCTYPE svg PUBLIC "-//W3C//DTD SVG 1.1//EN"
 "http://www.w3.org/Graphics/SVG/1.1/DTD/svg11.dtd">
<!-- Generated by graphviz version 2.40.1 (20161225.0304)
 -->
<!-- Title: dependencies Pages: 1 -->
<svg width="642pt" height="284pt"
 viewBox="0.00 0.00 642.00 284.00" xmlns="http://www.w3.org/2000/svg" xmlns:xlink="http://www.w3.org/1999/xlink">
<g id="graph0" class="graph" transform="scale(1 1) rotate(0) translate(4 280)">
<title>dependencies</title>
<polygon fill="#ffffff" stroke="transparent" points="-4,4 -4,-280 638,-280 638,4 -4,4"/>
<text text-anchor="start" x="296.0091" y="-42.4" font-family="sans-serif" font-weight="bold" font-size="14.00" fill="#000000">Legend</text>
<polygon fill="#ffffb3" stroke="transparent" points="83,-10 83,-30 103,-30 103,-10 83,-10"/>
<text text-anchor="start" x="106.629" y="-15.4" font-family="sans-serif" font-size="14.00" fill="#000000"> &#160;Declarations</text>
<polygon fill="#8dd3c7" stroke="transparent" points="196,-10 196,-30 216,-30 216,-10 196,-10"/>
<text text-anchor="start" x="219.7251" y="-15.4" font-family="sans-serif" font-size="14.00" fill="#000000"> &#160;Module</text>
<polygon fill="#80b1d3" stroke="transparent" points="282,-10 282,-30 302,-30 302,-10 282,-10"/>
<text text-anchor="start" x="305.7812" y="-15.4" font-family="sans-serif" font-size="14.00" fill="#000000"> &#160;Bootstrap</text>
<polygon fill="#fdb462" stroke="transparent" points="379,-10 379,-30 399,-30 399,-10 379,-10"/>
<text text-anchor="start" x="402.6732" y="-15.4" font-family="sans-serif" font-size="14.00" fill="#000000"> &#160;Providers</text>
<polygon fill="#fb8072" stroke="transparent" points="475,-10 475,-30 495,-30 495,-10 475,-10"/>
<text text-anchor="start" x="498.7258" y="-15.4" font-family="sans-serif" font-size="14.00" fill="#000000"> &#160;Exports</text>
<g id="clust1" class="cluster">
<title>cluster_UsersModule</title>
<polygon fill="none" stroke="#000000" stroke-dasharray="1,5" points="8,-70 8,-268 626,-268 626,-70 8,-70"/>
</g>
<g id="clust3" class="cluster">
<title>cluster_UsersModule_imports</title>
<polygon fill="none" stroke="#000000" points="164,-78 164,-130 618,-130 618,-78 164,-78"/>
</g>
<g id="clust4" class="cluster">
<title>cluster_UsersModule_exports</title>
<polygon fill="none" stroke="#000000" points="291,-208 291,-260 401,-260 401,-208 291,-208"/>
</g>
<g id="clust6" class="cluster">
<title>cluster_UsersModule_providers</title>
<polygon fill="none" stroke="#000000" points="16,-78 16,-130 156,-130 156,-78 16,-78"/>
</g>
<!-- AuthModule -->
<g id="node1" class="node">
<title>AuthModule</title>
<polygon fill="#8dd3c7" stroke="#000000" points="609.5482,-122 606.5482,-126 585.5482,-126 582.5482,-122 522.4518,-122 522.4518,-86 609.5482,-86 609.5482,-122"/>
<text text-anchor="middle" x="566" y="-99.8" font-family="Times,serif" font-size="14.00" fill="#000000">AuthModule</text>
</g>
<!-- UsersModule -->
<g id="node5" class="node">
<title>UsersModule</title>
<polygon fill="#8dd3c7" stroke="#000000" points="391.9218,-187 388.9218,-191 367.9218,-191 364.9218,-187 300.0782,-187 300.0782,-151 391.9218,-151 391.9218,-187"/>
<text text-anchor="middle" x="346" y="-164.8" font-family="Times,serif" font-size="14.00" fill="#000000">UsersModule</text>
</g>
<!-- AuthModule&#45;&gt;UsersModule -->
<g id="edge1" class="edge">
<title>AuthModule&#45;&gt;UsersModule</title>
<path fill="none" stroke="#000000" d="M566,-122.2843C566,-143.3211 566,-175 566,-175 566,-175 401.8514,-175 401.8514,-175"/>
<polygon fill="#000000" stroke="#000000" points="401.8515,-171.5001 391.8514,-175 401.8514,-178.5001 401.8515,-171.5001"/>
</g>
<!-- FilesModule -->
<g id="node2" class="node">
<title>FilesModule</title>
<polygon fill="#8dd3c7" stroke="#000000" points="504.2731,-122 501.2731,-126 480.2731,-126 477.2731,-122 417.7269,-122 417.7269,-86 504.2731,-86 504.2731,-122"/>
<text text-anchor="middle" x="461" y="-99.8" font-family="Times,serif" font-size="14.00" fill="#000000">FilesModule</text>
</g>
<!-- FilesModule&#45;&gt;UsersModule -->
<g id="edge2" class="edge">
<title>FilesModule&#45;&gt;UsersModule</title>
<path fill="none" stroke="#000000" d="M461,-122.0225C461,-139.3734 461,-163 461,-163 461,-163 401.7815,-163 401.7815,-163"/>
<polygon fill="#000000" stroke="#000000" points="401.7815,-159.5001 391.7815,-163 401.7814,-166.5001 401.7815,-159.5001"/>
</g>
<!-- SessionsModule -->
<g id="node3" class="node">
<title>SessionsModule</title>
<polygon fill="#8dd3c7" stroke="#000000" points="399.7716,-122 396.7716,-126 375.7716,-126 372.7716,-122 292.2284,-122 292.2284,-86 399.7716,-86 399.7716,-122"/>
<text text-anchor="middle" x="346" y="-99.8" font-family="Times,serif" font-size="14.00" fill="#000000">SessionsModule</text>
</g>
<!-- SessionsModule&#45;&gt;UsersModule -->
<g id="edge3" class="edge">
<title>SessionsModule&#45;&gt;UsersModule</title>
<path fill="none" stroke="#000000" d="M346,-122.1061C346,-122.1061 346,-140.991 346,-140.991"/>
<polygon fill="#000000" stroke="#000000" points="342.5001,-140.9909 346,-150.991 349.5001,-140.991 342.5001,-140.9909"/>
</g>
<!-- StorageModule -->
<g id="node4" class="node">
<title>StorageModule</title>
<polygon fill="#8dd3c7" stroke="#000000" points="274.3133,-122 271.3133,-126 250.3133,-126 247.3133,-122 171.6867,-122 171.6867,-86 274.3133,-86 274.3133,-122"/>
<text text-anchor="middle" x="223" y="-99.8" font-family="Times,serif" font-size="14.00" fill="#000000">StorageModule</text>
</g>
<!-- StorageModule&#45;&gt;UsersModule -->
<g id="edge4" class="edge">
<title>StorageModule&#45;&gt;UsersModule</title>
<path fill="none" stroke="#000000" d="M223,-122.0225C223,-139.3734 223,-163 223,-163 223,-163 290.1993,-163 290.1993,-163"/>
<polygon fill="#000000" stroke="#000000" points="290.1994,-166.5001 300.1993,-163 290.1993,-159.5001 290.1994,-166.5001"/>
</g>
<!-- UsersService  -->
<g id="node6" class="node">
<title>UsersService </title>
<polygon fill="#fb8072" stroke="#000000" points="392.8493,-252 299.1507,-252 299.1507,-216 392.8493,-216 392.8493,-252"/>
<text text-anchor="middle" x="346" y="-229.8" font-family="Times,serif" font-size="14.00" fill="#000000">UsersService </text>
</g>
<!-- UsersModule&#45;&gt;UsersService  -->
<g id="edge5" class="edge">
<title>UsersModule&#45;&gt;UsersService </title>
<path fill="none" stroke="#000000" stroke-dasharray="5,2" d="M346,-187.1061C346,-187.1061 346,-205.991 346,-205.991"/>
<polygon fill="#000000" stroke="#000000" points="342.5001,-205.9909 346,-215.991 349.5001,-205.991 342.5001,-205.9909"/>
</g>
<!-- UsersService -->
<g id="node7" class="node">
<title>UsersService</title>
<ellipse fill="#fdb462" stroke="#000000" cx="86" cy="-104" rx="61.9519" ry="18"/>
<text text-anchor="middle" x="86" y="-99.8" font-family="Times,serif" font-size="14.00" fill="#000000">UsersService</text>
</g>
<!-- UsersService&#45;&gt;UsersModule -->
<g id="edge6" class="edge">
<title>UsersService&#45;&gt;UsersModule</title>
<path fill="none" stroke="#000000" d="M86,-122.2843C86,-143.3211 86,-175 86,-175 86,-175 290.1157,-175 290.1157,-175"/>
<polygon fill="#000000" stroke="#000000" points="290.1158,-178.5001 300.1157,-175 290.1157,-171.5001 290.1158,-178.5001"/>
</g>
</g>
</svg>
