<?xml version="1.0" encoding="UTF-8" standalone="no"?>
<!DOCTYPE svg PUBLIC "-//W3C//DTD SVG 1.1//EN"
 "http://www.w3.org/Graphics/SVG/1.1/DTD/svg11.dtd">
<!-- Generated by graphviz version 2.40.1 (20161225.0304)
 -->
<!-- Title: dependencies Pages: 1 -->
<svg width="535pt" height="284pt"
 viewBox="0.00 0.00 535.00 284.00" xmlns="http://www.w3.org/2000/svg" xmlns:xlink="http://www.w3.org/1999/xlink">
<g id="graph0" class="graph" transform="scale(1 1) rotate(0) translate(4 280)">
<title>dependencies</title>
<polygon fill="#ffffff" stroke="transparent" points="-4,4 -4,-280 531,-280 531,4 -4,4"/>
<text text-anchor="start" x="242.5091" y="-42.4" font-family="sans-serif" font-weight="bold" font-size="14.00" fill="#000000">Legend</text>
<polygon fill="#ffffb3" stroke="transparent" points="29.5,-10 29.5,-30 49.5,-30 49.5,-10 29.5,-10"/>
<text text-anchor="start" x="53.129" y="-15.4" font-family="sans-serif" font-size="14.00" fill="#000000"> &#160;Declarations</text>
<polygon fill="#8dd3c7" stroke="transparent" points="142.5,-10 142.5,-30 162.5,-30 162.5,-10 142.5,-10"/>
<text text-anchor="start" x="166.2251" y="-15.4" font-family="sans-serif" font-size="14.00" fill="#000000"> &#160;Module</text>
<polygon fill="#80b1d3" stroke="transparent" points="228.5,-10 228.5,-30 248.5,-30 248.5,-10 228.5,-10"/>
<text text-anchor="start" x="252.2812" y="-15.4" font-family="sans-serif" font-size="14.00" fill="#000000"> &#160;Bootstrap</text>
<polygon fill="#fdb462" stroke="transparent" points="325.5,-10 325.5,-30 345.5,-30 345.5,-10 325.5,-10"/>
<text text-anchor="start" x="349.1732" y="-15.4" font-family="sans-serif" font-size="14.00" fill="#000000"> &#160;Providers</text>
<polygon fill="#fb8072" stroke="transparent" points="421.5,-10 421.5,-30 441.5,-30 441.5,-10 421.5,-10"/>
<text text-anchor="start" x="445.2258" y="-15.4" font-family="sans-serif" font-size="14.00" fill="#000000"> &#160;Exports</text>
<g id="clust1" class="cluster">
<title>cluster_SettingsModule</title>
<polygon fill="none" stroke="#000000" stroke-dasharray="1,5" points="8,-70 8,-268 519,-268 519,-70 8,-70"/>
</g>
<g id="clust3" class="cluster">
<title>cluster_SettingsModule_imports</title>
<polygon fill="none" stroke="#000000" points="182,-78 182,-130 511,-130 511,-78 182,-78"/>
</g>
<g id="clust4" class="cluster">
<title>cluster_SettingsModule_exports</title>
<polygon fill="none" stroke="#000000" points="236,-208 236,-260 358,-260 358,-208 236,-208"/>
</g>
<g id="clust6" class="cluster">
<title>cluster_SettingsModule_providers</title>
<polygon fill="none" stroke="#000000" points="16,-78 16,-130 174,-130 174,-78 16,-78"/>
</g>
<!-- AuthModule -->
<g id="node1" class="node">
<title>AuthModule</title>
<polygon fill="#8dd3c7" stroke="#000000" points="502.5482,-122 499.5482,-126 478.5482,-126 475.5482,-122 415.4518,-122 415.4518,-86 502.5482,-86 502.5482,-122"/>
<text text-anchor="middle" x="459" y="-99.8" font-family="Times,serif" font-size="14.00" fill="#000000">AuthModule</text>
</g>
<!-- SettingsModule -->
<g id="node4" class="node">
<title>SettingsModule</title>
<polygon fill="#8dd3c7" stroke="#000000" points="349.1639,-187 346.1639,-191 325.1639,-191 322.1639,-187 244.8361,-187 244.8361,-151 349.1639,-151 349.1639,-187"/>
<text text-anchor="middle" x="297" y="-164.8" font-family="Times,serif" font-size="14.00" fill="#000000">SettingsModule</text>
</g>
<!-- AuthModule&#45;&gt;SettingsModule -->
<g id="edge1" class="edge">
<title>AuthModule&#45;&gt;SettingsModule</title>
<path fill="none" stroke="#000000" d="M459,-122.1061C459,-141.3391 459,-169 459,-169 459,-169 359.5968,-169 359.5968,-169"/>
<polygon fill="#000000" stroke="#000000" points="359.5968,-165.5001 349.5968,-169 359.5967,-172.5001 359.5968,-165.5001"/>
</g>
<!-- FilesModule -->
<g id="node2" class="node">
<title>FilesModule</title>
<polygon fill="#8dd3c7" stroke="#000000" points="397.2731,-122 394.2731,-126 373.2731,-126 370.2731,-122 310.7269,-122 310.7269,-86 397.2731,-86 397.2731,-122"/>
<text text-anchor="middle" x="354" y="-99.8" font-family="Times,serif" font-size="14.00" fill="#000000">FilesModule</text>
</g>
<!-- FilesModule&#45;&gt;SettingsModule -->
<g id="edge2" class="edge">
<title>FilesModule&#45;&gt;SettingsModule</title>
<path fill="none" stroke="#000000" d="M329.9727,-122.1061C329.9727,-122.1061 329.9727,-140.991 329.9727,-140.991"/>
<polygon fill="#000000" stroke="#000000" points="326.4727,-140.9909 329.9727,-150.991 333.4727,-140.991 326.4727,-140.9909"/>
</g>
<!-- StorageModule -->
<g id="node3" class="node">
<title>StorageModule</title>
<polygon fill="#8dd3c7" stroke="#000000" points="292.3133,-122 289.3133,-126 268.3133,-126 265.3133,-122 189.6867,-122 189.6867,-86 292.3133,-86 292.3133,-122"/>
<text text-anchor="middle" x="241" y="-99.8" font-family="Times,serif" font-size="14.00" fill="#000000">StorageModule</text>
</g>
<!-- StorageModule&#45;&gt;SettingsModule -->
<g id="edge3" class="edge">
<title>StorageModule&#45;&gt;SettingsModule</title>
<path fill="none" stroke="#000000" d="M268.4124,-122.1061C268.4124,-122.1061 268.4124,-140.991 268.4124,-140.991"/>
<polygon fill="#000000" stroke="#000000" points="264.9124,-140.9909 268.4124,-150.991 271.9124,-140.991 264.9124,-140.9909"/>
</g>
<!-- SettingsService  -->
<g id="node5" class="node">
<title>SettingsService </title>
<polygon fill="#fb8072" stroke="#000000" points="350.092,-252 243.908,-252 243.908,-216 350.092,-216 350.092,-252"/>
<text text-anchor="middle" x="297" y="-229.8" font-family="Times,serif" font-size="14.00" fill="#000000">SettingsService </text>
</g>
<!-- SettingsModule&#45;&gt;SettingsService  -->
<g id="edge4" class="edge">
<title>SettingsModule&#45;&gt;SettingsService </title>
<path fill="none" stroke="#000000" stroke-dasharray="5,2" d="M297,-187.1061C297,-187.1061 297,-205.991 297,-205.991"/>
<polygon fill="#000000" stroke="#000000" points="293.5001,-205.9909 297,-215.991 300.5001,-205.991 293.5001,-205.9909"/>
</g>
<!-- SettingsService -->
<g id="node6" class="node">
<title>SettingsService</title>
<ellipse fill="#fdb462" stroke="#000000" cx="95" cy="-104" rx="71.221" ry="18"/>
<text text-anchor="middle" x="95" y="-99.8" font-family="Times,serif" font-size="14.00" fill="#000000">SettingsService</text>
</g>
<!-- SettingsService&#45;&gt;SettingsModule -->
<g id="edge5" class="edge">
<title>SettingsService&#45;&gt;SettingsModule</title>
<path fill="none" stroke="#000000" d="M95,-122.1061C95,-141.3391 95,-169 95,-169 95,-169 234.7173,-169 234.7173,-169"/>
<polygon fill="#000000" stroke="#000000" points="234.7173,-172.5001 244.7173,-169 234.7172,-165.5001 234.7173,-172.5001"/>
</g>
</g>
</svg>
