<?xml version="1.0" encoding="UTF-8" standalone="no"?>
<!DOCTYPE svg PUBLIC "-//W3C//DTD SVG 1.1//EN"
 "http://www.w3.org/Graphics/SVG/1.1/DTD/svg11.dtd">
<!-- Generated by graphviz version 2.40.1 (20161225.0304)
 -->
<!-- Title: dependencies Pages: 1 -->
<svg width="645pt" height="284pt"
 viewBox="0.00 0.00 645.00 284.00" xmlns="http://www.w3.org/2000/svg" xmlns:xlink="http://www.w3.org/1999/xlink">
<g id="graph0" class="graph" transform="scale(1 1) rotate(0) translate(4 280)">
<title>dependencies</title>
<polygon fill="#ffffff" stroke="transparent" points="-4,4 -4,-280 641,-280 641,4 -4,4"/>
<text text-anchor="start" x="297.5091" y="-42.4" font-family="sans-serif" font-weight="bold" font-size="14.00" fill="#000000">Legend</text>
<polygon fill="#ffffb3" stroke="transparent" points="84.5,-10 84.5,-30 104.5,-30 104.5,-10 84.5,-10"/>
<text text-anchor="start" x="108.129" y="-15.4" font-family="sans-serif" font-size="14.00" fill="#000000"> &#160;Declarations</text>
<polygon fill="#8dd3c7" stroke="transparent" points="197.5,-10 197.5,-30 217.5,-30 217.5,-10 197.5,-10"/>
<text text-anchor="start" x="221.2251" y="-15.4" font-family="sans-serif" font-size="14.00" fill="#000000"> &#160;Module</text>
<polygon fill="#80b1d3" stroke="transparent" points="283.5,-10 283.5,-30 303.5,-30 303.5,-10 283.5,-10"/>
<text text-anchor="start" x="307.2812" y="-15.4" font-family="sans-serif" font-size="14.00" fill="#000000"> &#160;Bootstrap</text>
<polygon fill="#fdb462" stroke="transparent" points="380.5,-10 380.5,-30 400.5,-30 400.5,-10 380.5,-10"/>
<text text-anchor="start" x="404.1732" y="-15.4" font-family="sans-serif" font-size="14.00" fill="#000000"> &#160;Providers</text>
<polygon fill="#fb8072" stroke="transparent" points="476.5,-10 476.5,-30 496.5,-30 496.5,-10 476.5,-10"/>
<text text-anchor="start" x="500.2258" y="-15.4" font-family="sans-serif" font-size="14.00" fill="#000000"> &#160;Exports</text>
<g id="clust1" class="cluster">
<title>cluster_SettingsModule</title>
<polygon fill="none" stroke="#000000" stroke-dasharray="1,5" points="8,-70 8,-268 629,-268 629,-70 8,-70"/>
</g>
<g id="clust3" class="cluster">
<title>cluster_SettingsModule_imports</title>
<polygon fill="none" stroke="#000000" points="182,-78 182,-130 621,-130 621,-78 182,-78"/>
</g>
<g id="clust4" class="cluster">
<title>cluster_SettingsModule_exports</title>
<polygon fill="none" stroke="#000000" points="290,-208 290,-260 412,-260 412,-208 290,-208"/>
</g>
<g id="clust6" class="cluster">
<title>cluster_SettingsModule_providers</title>
<polygon fill="none" stroke="#000000" points="16,-78 16,-130 174,-130 174,-78 16,-78"/>
</g>
<!-- AuthModule -->
<g id="node1" class="node">
<title>AuthModule</title>
<polygon fill="#8dd3c7" stroke="#000000" points="612.5482,-122 609.5482,-126 588.5482,-126 585.5482,-122 525.4518,-122 525.4518,-86 612.5482,-86 612.5482,-122"/>
<text text-anchor="middle" x="569" y="-99.8" font-family="Times,serif" font-size="14.00" fill="#000000">AuthModule</text>
</g>
<!-- SettingsModule -->
<g id="node5" class="node">
<title>SettingsModule</title>
<polygon fill="#8dd3c7" stroke="#000000" points="403.1639,-187 400.1639,-191 379.1639,-191 376.1639,-187 298.8361,-187 298.8361,-151 403.1639,-151 403.1639,-187"/>
<text text-anchor="middle" x="351" y="-164.8" font-family="Times,serif" font-size="14.00" fill="#000000">SettingsModule</text>
</g>
<!-- AuthModule&#45;&gt;SettingsModule -->
<g id="edge1" class="edge">
<title>AuthModule&#45;&gt;SettingsModule</title>
<path fill="none" stroke="#000000" d="M569,-122.2843C569,-143.3211 569,-175 569,-175 569,-175 413.2164,-175 413.2164,-175"/>
<polygon fill="#000000" stroke="#000000" points="413.2165,-171.5001 403.2164,-175 413.2164,-178.5001 413.2165,-171.5001"/>
</g>
<!-- FilesModule -->
<g id="node2" class="node">
<title>FilesModule</title>
<polygon fill="#8dd3c7" stroke="#000000" points="507.2731,-122 504.2731,-126 483.2731,-126 480.2731,-122 420.7269,-122 420.7269,-86 507.2731,-86 507.2731,-122"/>
<text text-anchor="middle" x="464" y="-99.8" font-family="Times,serif" font-size="14.00" fill="#000000">FilesModule</text>
</g>
<!-- FilesModule&#45;&gt;SettingsModule -->
<g id="edge2" class="edge">
<title>FilesModule&#45;&gt;SettingsModule</title>
<path fill="none" stroke="#000000" d="M464,-122.0225C464,-139.3734 464,-163 464,-163 464,-163 413.2,-163 413.2,-163"/>
<polygon fill="#000000" stroke="#000000" points="413.2,-159.5001 403.2,-163 413.2,-166.5001 413.2,-159.5001"/>
</g>
<!-- StorageModule -->
<g id="node3" class="node">
<title>StorageModule</title>
<polygon fill="#8dd3c7" stroke="#000000" points="402.3133,-122 399.3133,-126 378.3133,-126 375.3133,-122 299.6867,-122 299.6867,-86 402.3133,-86 402.3133,-122"/>
<text text-anchor="middle" x="351" y="-99.8" font-family="Times,serif" font-size="14.00" fill="#000000">StorageModule</text>
</g>
<!-- StorageModule&#45;&gt;SettingsModule -->
<g id="edge3" class="edge">
<title>StorageModule&#45;&gt;SettingsModule</title>
<path fill="none" stroke="#000000" d="M351,-122.1061C351,-122.1061 351,-140.991 351,-140.991"/>
<polygon fill="#000000" stroke="#000000" points="347.5001,-140.9909 351,-150.991 354.5001,-140.991 347.5001,-140.9909"/>
</g>
<!-- UsersModule -->
<g id="node4" class="node">
<title>UsersModule</title>
<polygon fill="#8dd3c7" stroke="#000000" points="281.9218,-122 278.9218,-126 257.9218,-126 254.9218,-122 190.0782,-122 190.0782,-86 281.9218,-86 281.9218,-122"/>
<text text-anchor="middle" x="236" y="-99.8" font-family="Times,serif" font-size="14.00" fill="#000000">UsersModule</text>
</g>
<!-- UsersModule&#45;&gt;SettingsModule -->
<g id="edge4" class="edge">
<title>UsersModule&#45;&gt;SettingsModule</title>
<path fill="none" stroke="#000000" d="M236,-122.0225C236,-139.3734 236,-163 236,-163 236,-163 288.5479,-163 288.5479,-163"/>
<polygon fill="#000000" stroke="#000000" points="288.548,-166.5001 298.5479,-163 288.5479,-159.5001 288.548,-166.5001"/>
</g>
<!-- SettingsService  -->
<g id="node6" class="node">
<title>SettingsService </title>
<polygon fill="#fb8072" stroke="#000000" points="404.092,-252 297.908,-252 297.908,-216 404.092,-216 404.092,-252"/>
<text text-anchor="middle" x="351" y="-229.8" font-family="Times,serif" font-size="14.00" fill="#000000">SettingsService </text>
</g>
<!-- SettingsModule&#45;&gt;SettingsService  -->
<g id="edge5" class="edge">
<title>SettingsModule&#45;&gt;SettingsService </title>
<path fill="none" stroke="#000000" stroke-dasharray="5,2" d="M351,-187.1061C351,-187.1061 351,-205.991 351,-205.991"/>
<polygon fill="#000000" stroke="#000000" points="347.5001,-205.9909 351,-215.991 354.5001,-205.991 347.5001,-205.9909"/>
</g>
<!-- SettingsService -->
<g id="node7" class="node">
<title>SettingsService</title>
<ellipse fill="#fdb462" stroke="#000000" cx="95" cy="-104" rx="71.221" ry="18"/>
<text text-anchor="middle" x="95" y="-99.8" font-family="Times,serif" font-size="14.00" fill="#000000">SettingsService</text>
</g>
<!-- SettingsService&#45;&gt;SettingsModule -->
<g id="edge6" class="edge">
<title>SettingsService&#45;&gt;SettingsModule</title>
<path fill="none" stroke="#000000" d="M95,-122.2843C95,-143.3211 95,-175 95,-175 95,-175 288.5768,-175 288.5768,-175"/>
<polygon fill="#000000" stroke="#000000" points="288.5769,-178.5001 298.5768,-175 288.5768,-171.5001 288.5769,-178.5001"/>
</g>
</g>
</svg>
