<?xml version="1.0" encoding="UTF-8" standalone="no"?>
<!DOCTYPE svg PUBLIC "-//W3C//DTD SVG 1.1//EN"
 "http://www.w3.org/Graphics/SVG/1.1/DTD/svg11.dtd">
<!-- Generated by graphviz version 2.40.1 (20161225.0304)
 -->
<!-- Title: dependencies Pages: 1 -->
<svg width="1600pt" height="450pt"
 viewBox="0.00 0.00 1600.00 450.00" xmlns="http://www.w3.org/2000/svg" xmlns:xlink="http://www.w3.org/1999/xlink">
<g id="graph0" class="graph" transform="scale(1 1) rotate(0) translate(4 446)">
<title>dependencies</title>
<polygon fill="#ffffff" stroke="transparent" points="-4,4 -4,-446 1596,-446 1596,4 -4,4"/>
<text text-anchor="start" x="775.0091" y="-42.4" font-family="sans-serif" font-weight="bold" font-size="14.00" fill="#000000">Legend</text>
<polygon fill="#ffffb3" stroke="transparent" points="562,-10 562,-30 582,-30 582,-10 562,-10"/>
<text text-anchor="start" x="585.629" y="-15.4" font-family="sans-serif" font-size="14.00" fill="#000000"> &#160;Declarations</text>
<polygon fill="#8dd3c7" stroke="transparent" points="675,-10 675,-30 695,-30 695,-10 675,-10"/>
<text text-anchor="start" x="698.7251" y="-15.4" font-family="sans-serif" font-size="14.00" fill="#000000"> &#160;Module</text>
<polygon fill="#80b1d3" stroke="transparent" points="761,-10 761,-30 781,-30 781,-10 761,-10"/>
<text text-anchor="start" x="784.7812" y="-15.4" font-family="sans-serif" font-size="14.00" fill="#000000"> &#160;Bootstrap</text>
<polygon fill="#fdb462" stroke="transparent" points="858,-10 858,-30 878,-30 878,-10 858,-10"/>
<text text-anchor="start" x="881.6732" y="-15.4" font-family="sans-serif" font-size="14.00" fill="#000000"> &#160;Providers</text>
<polygon fill="#fb8072" stroke="transparent" points="954,-10 954,-30 974,-30 974,-10 954,-10"/>
<text text-anchor="start" x="977.7258" y="-15.4" font-family="sans-serif" font-size="14.00" fill="#000000"> &#160;Exports</text>
<g id="clust1" class="cluster">
<title>cluster_AdminModule</title>
<polygon fill="none" stroke="#000000" stroke-dasharray="1,5" points="1302,-70 1302,-290 1584,-290 1584,-70 1302,-70"/>
</g>
<g id="clust3" class="cluster">
<title>cluster_AdminModule_imports</title>
<polygon fill="none" stroke="#000000" points="1310,-78 1310,-130 1418,-130 1418,-78 1310,-78"/>
</g>
<g id="clust4" class="cluster">
<title>cluster_AdminModule_exports</title>
<polygon fill="none" stroke="#000000" points="1332,-230 1332,-282 1448,-282 1448,-230 1332,-230"/>
</g>
<g id="clust6" class="cluster">
<title>cluster_AdminModule_providers</title>
<polygon fill="none" stroke="#000000" points="1426,-78 1426,-130 1576,-130 1576,-78 1426,-78"/>
</g>
<g id="clust7" class="cluster">
<title>cluster_AppModule</title>
<polygon fill="none" stroke="#000000" stroke-dasharray="1,5" points="320,-146 320,-434 774,-434 774,-146 320,-146"/>
</g>
<g id="clust9" class="cluster">
<title>cluster_AppModule_imports</title>
<polygon fill="none" stroke="#000000" points="328,-154 328,-282 766,-282 766,-154 328,-154"/>
</g>
<g id="clust10" class="cluster">
<title>cluster_AppModule_exports</title>
<polygon fill="none" stroke="#000000" points="427,-374 427,-426 621,-426 621,-374 427,-374"/>
</g>
<g id="clust13" class="cluster">
<title>cluster_AuthModule</title>
<polygon fill="none" stroke="#000000" stroke-dasharray="1,5" points="48,-222 48,-290 312,-290 312,-222 48,-222"/>
</g>
<g id="clust16" class="cluster">
<title>cluster_AuthModule_exports</title>
<polygon fill="none" stroke="#000000" points="198,-230 198,-282 304,-282 304,-230 198,-230"/>
</g>
<g id="clust18" class="cluster">
<title>cluster_AuthModule_providers</title>
<polygon fill="none" stroke="#000000" points="56,-230 56,-282 190,-282 190,-230 56,-230"/>
</g>
<g id="clust19" class="cluster">
<title>cluster_BullBoardModule</title>
<polygon fill="none" stroke="#000000" stroke-dasharray="1,5" points="782,-146 782,-214 984,-214 984,-146 782,-146"/>
</g>
<g id="clust24" class="cluster">
<title>cluster_BullBoardModule_providers</title>
<polygon fill="none" stroke="#000000" points="790,-154 790,-206 976,-206 976,-154 790,-154"/>
</g>
<g id="clust25" class="cluster">
<title>cluster_FilesModule</title>
<polygon fill="none" stroke="#000000" stroke-dasharray="1,5" points="103,-70 103,-138 643,-138 643,-70 103,-70"/>
</g>
<g id="clust27" class="cluster">
<title>cluster_FilesModule_imports</title>
<polygon fill="none" stroke="#000000" points="111,-78 111,-130 229,-130 229,-78 111,-78"/>
</g>
<g id="clust28" class="cluster">
<title>cluster_FilesModule_exports</title>
<polygon fill="none" stroke="#000000" points="237,-78 237,-130 341,-130 341,-78 237,-78"/>
</g>
<g id="clust30" class="cluster">
<title>cluster_FilesModule_providers</title>
<polygon fill="none" stroke="#000000" points="349,-78 349,-130 635,-130 635,-78 349,-78"/>
</g>
<g id="clust37" class="cluster">
<title>cluster_MailerModule</title>
<polygon fill="none" stroke="#000000" stroke-dasharray="1,5" points="651,-70 651,-138 1103,-138 1103,-70 651,-70"/>
</g>
<g id="clust40" class="cluster">
<title>cluster_MailerModule_exports</title>
<polygon fill="none" stroke="#000000" points="981,-78 981,-130 1095,-130 1095,-78 981,-78"/>
</g>
<g id="clust42" class="cluster">
<title>cluster_MailerModule_providers</title>
<polygon fill="none" stroke="#000000" points="659,-78 659,-130 973,-130 973,-78 659,-78"/>
</g>
<g id="clust43" class="cluster">
<title>cluster_SettingsModule</title>
<polygon fill="none" stroke="#000000" stroke-dasharray="1,5" points="8,-298 8,-366 312,-366 312,-298 8,-298"/>
</g>
<g id="clust46" class="cluster">
<title>cluster_SettingsModule_exports</title>
<polygon fill="none" stroke="#000000" points="182,-306 182,-358 304,-358 304,-306 182,-306"/>
</g>
<g id="clust48" class="cluster">
<title>cluster_SettingsModule_providers</title>
<polygon fill="none" stroke="#000000" points="16,-306 16,-358 174,-358 174,-306 16,-306"/>
</g>
<g id="clust49" class="cluster">
<title>cluster_StorageModule</title>
<polygon fill="none" stroke="#000000" stroke-dasharray="1,5" points="14,-146 14,-214 312,-214 312,-146 14,-146"/>
</g>
<g id="clust52" class="cluster">
<title>cluster_StorageModule_exports</title>
<polygon fill="none" stroke="#000000" points="184,-154 184,-206 304,-206 304,-154 184,-154"/>
</g>
<g id="clust54" class="cluster">
<title>cluster_StorageModule_providers</title>
<polygon fill="none" stroke="#000000" points="22,-154 22,-206 176,-206 176,-154 22,-154"/>
</g>
<g id="clust55" class="cluster">
<title>cluster_UsersModule</title>
<polygon fill="none" stroke="#000000" stroke-dasharray="1,5" points="1020,-146 1020,-214 1294,-214 1294,-146 1020,-146"/>
</g>
<g id="clust58" class="cluster">
<title>cluster_UsersModule_exports</title>
<polygon fill="none" stroke="#000000" points="1176,-154 1176,-206 1286,-206 1286,-154 1176,-154"/>
</g>
<g id="clust60" class="cluster">
<title>cluster_UsersModule_providers</title>
<polygon fill="none" stroke="#000000" points="1028,-154 1028,-206 1168,-206 1168,-154 1028,-154"/>
</g>
<!-- UsersModule -->
<g id="node1" class="node">
<title>UsersModule</title>
<polygon fill="#8dd3c7" stroke="#000000" points="1409.9218,-122 1406.9218,-126 1385.9218,-126 1382.9218,-122 1318.0782,-122 1318.0782,-86 1409.9218,-86 1409.9218,-122"/>
<text text-anchor="middle" x="1364" y="-99.8" font-family="Times,serif" font-size="14.00" fill="#000000">UsersModule</text>
</g>
<!-- AdminModule -->
<g id="node2" class="node">
<title>AdminModule</title>
<polygon fill="#8dd3c7" stroke="#000000" points="1478.4386,-198 1475.4386,-202 1454.4386,-202 1451.4386,-198 1379.5614,-198 1379.5614,-162 1478.4386,-162 1478.4386,-198"/>
<text text-anchor="middle" x="1429" y="-175.8" font-family="Times,serif" font-size="14.00" fill="#000000">AdminModule</text>
</g>
<!-- UsersModule&#45;&gt;AdminModule -->
<g id="edge1" class="edge">
<title>UsersModule&#45;&gt;AdminModule</title>
<path fill="none" stroke="#000000" d="M1394.7458,-122.0109C1394.7458,-122.0109 1394.7458,-151.855 1394.7458,-151.855"/>
<polygon fill="#000000" stroke="#000000" points="1391.2459,-151.8549 1394.7458,-161.855 1398.2459,-151.855 1391.2459,-151.8549"/>
</g>
<!-- AuthModule -->
<g id="node5" class="node">
<title>AuthModule</title>
<polygon fill="#8dd3c7" stroke="#000000" points="423.5482,-198 420.5482,-202 399.5482,-202 396.5482,-198 336.4518,-198 336.4518,-162 423.5482,-162 423.5482,-198"/>
<text text-anchor="middle" x="380" y="-175.8" font-family="Times,serif" font-size="14.00" fill="#000000">AuthModule</text>
</g>
<!-- UsersModule&#45;&gt;AuthModule -->
<g id="edge14" class="edge">
<title>UsersModule&#45;&gt;AuthModule</title>
<path fill="none" stroke="#000000" d="M1321.8776,-122.1223C1321.8776,-124.9729 1321.8776,-127 1321.8776,-127 1321.8776,-127 390.2098,-127 390.2098,-127 390.2098,-127 390.2098,-151.7604 390.2098,-151.7604"/>
<polygon fill="#000000" stroke="#000000" points="386.7099,-151.7604 390.2098,-161.7604 393.7099,-151.7604 386.7099,-151.7604"/>
</g>
<!-- FilesModule -->
<g id="node7" class="node">
<title>FilesModule</title>
<polygon fill="#8dd3c7" stroke="#000000" points="643.2731,-198 640.2731,-202 619.2731,-202 616.2731,-198 556.7269,-198 556.7269,-162 643.2731,-162 643.2731,-198"/>
<text text-anchor="middle" x="600" y="-175.8" font-family="Times,serif" font-size="14.00" fill="#000000">FilesModule</text>
</g>
<!-- UsersModule&#45;&gt;FilesModule -->
<g id="edge20" class="edge">
<title>UsersModule&#45;&gt;FilesModule</title>
<path fill="none" stroke="#000000" d="M1325.4655,-122.1592C1325.4655,-127.0433 1325.4655,-131 1325.4655,-131 1325.4655,-131 635.0781,-131 635.0781,-131 635.0781,-131 635.0781,-151.7542 635.0781,-151.7542"/>
<polygon fill="#000000" stroke="#000000" points="631.5782,-151.7542 635.0781,-161.7542 638.5782,-151.7542 631.5782,-151.7542"/>
</g>
<!-- SettingsModule -->
<g id="node10" class="node">
<title>SettingsModule</title>
<polygon fill="#8dd3c7" stroke="#000000" points="622.1639,-274 619.1639,-278 598.1639,-278 595.1639,-274 517.8361,-274 517.8361,-238 622.1639,-238 622.1639,-274"/>
<text text-anchor="middle" x="570" y="-251.8" font-family="Times,serif" font-size="14.00" fill="#000000">SettingsModule</text>
</g>
<!-- UsersModule&#45;&gt;SettingsModule -->
<g id="edge30" class="edge">
<title>UsersModule&#45;&gt;SettingsModule</title>
<path fill="none" stroke="#000000" d="M1332.6414,-122.0307C1332.6414,-156.4218 1332.6414,-228 1332.6414,-228 1332.6414,-228 600.4257,-228 600.4257,-228 600.4257,-228 600.4257,-228.9793 600.4257,-228.9793"/>
<polygon fill="#000000" stroke="#000000" points="596.9258,-227.793 600.4257,-237.793 603.9258,-227.7931 596.9258,-227.793"/>
</g>
<!-- AppModule -->
<g id="node11" class="node">
<title>AppModule</title>
<polygon fill="#8dd3c7" stroke="#000000" points="575.6571,-350 572.6571,-354 551.6571,-354 548.6571,-350 492.3429,-350 492.3429,-314 575.6571,-314 575.6571,-350"/>
<text text-anchor="middle" x="534" y="-327.8" font-family="Times,serif" font-size="14.00" fill="#000000">AppModule</text>
</g>
<!-- UsersModule&#45;&gt;AppModule -->
<g id="edge11" class="edge">
<title>UsersModule&#45;&gt;AppModule</title>
<path fill="none" stroke="#000000" d="M1336.2294,-122.2047C1336.2294,-176.8965 1336.2294,-336 1336.2294,-336 1336.2294,-336 585.7215,-336 585.7215,-336"/>
<polygon fill="#000000" stroke="#000000" points="585.7216,-332.5001 575.7215,-336 585.7215,-339.5001 585.7216,-332.5001"/>
</g>
<!-- UsersService  -->
<g id="node28" class="node">
<title>UsersService </title>
<polygon fill="#fb8072" stroke="#000000" points="1277.8493,-198 1184.1507,-198 1184.1507,-162 1277.8493,-162 1277.8493,-198"/>
<text text-anchor="middle" x="1231" y="-175.8" font-family="Times,serif" font-size="14.00" fill="#000000">UsersService </text>
</g>
<!-- UsersModule&#45;&gt;UsersService  -->
<g id="edge35" class="edge">
<title>UsersModule&#45;&gt;UsersService </title>
<path fill="none" stroke="#000000" stroke-dasharray="5,2" d="M1329.0534,-122.0109C1329.0534,-144.4852 1329.0534,-180 1329.0534,-180 1329.0534,-180 1287.7293,-180 1287.7293,-180"/>
<polygon fill="#000000" stroke="#000000" points="1287.7294,-176.5001 1277.7293,-180 1287.7293,-183.5001 1287.7294,-176.5001"/>
</g>
<!-- AdminService  -->
<g id="node3" class="node">
<title>AdminService </title>
<polygon fill="#fb8072" stroke="#000000" points="1440.3661,-274 1339.6339,-274 1339.6339,-238 1440.3661,-238 1440.3661,-274"/>
<text text-anchor="middle" x="1390" y="-251.8" font-family="Times,serif" font-size="14.00" fill="#000000">AdminService </text>
</g>
<!-- AdminModule&#45;&gt;AdminService  -->
<g id="edge2" class="edge">
<title>AdminModule&#45;&gt;AdminService </title>
<path fill="none" stroke="#000000" stroke-dasharray="5,2" d="M1409.9819,-198.0109C1409.9819,-198.0109 1409.9819,-227.855 1409.9819,-227.855"/>
<polygon fill="#000000" stroke="#000000" points="1406.482,-227.8549 1409.9819,-237.855 1413.482,-227.855 1406.482,-227.8549"/>
</g>
<!-- AdminModule&#45;&gt;AppModule -->
<g id="edge4" class="edge">
<title>AdminModule&#45;&gt;AppModule</title>
<path fill="none" stroke="#000000" d="M1459.2008,-198.0666C1459.2008,-240.5057 1459.2008,-343 1459.2008,-343 1459.2008,-343 585.8542,-343 585.8542,-343"/>
<polygon fill="#000000" stroke="#000000" points="585.8543,-339.5001 575.8542,-343 585.8542,-346.5001 585.8543,-339.5001"/>
</g>
<!-- AdminService -->
<g id="node4" class="node">
<title>AdminService</title>
<ellipse fill="#fdb462" stroke="#000000" cx="1501" cy="-104" rx="66.6325" ry="18"/>
<text text-anchor="middle" x="1501" y="-99.8" font-family="Times,serif" font-size="14.00" fill="#000000">AdminService</text>
</g>
<!-- AdminService&#45;&gt;AdminModule -->
<g id="edge3" class="edge">
<title>AdminService&#45;&gt;AdminModule</title>
<path fill="none" stroke="#000000" d="M1456.2014,-117.5873C1456.2014,-117.5873 1456.2014,-151.9574 1456.2014,-151.9574"/>
<polygon fill="#000000" stroke="#000000" points="1452.7015,-151.9574 1456.2014,-161.9574 1459.7015,-151.9575 1452.7015,-151.9574"/>
</g>
<!-- AuthModule&#45;&gt;SettingsModule -->
<g id="edge27" class="edge">
<title>AuthModule&#45;&gt;SettingsModule</title>
<path fill="none" stroke="#000000" d="M406.2641,-198.308C406.2641,-218.1455 406.2641,-247 406.2641,-247 406.2641,-247 507.7428,-247 507.7428,-247"/>
<polygon fill="#000000" stroke="#000000" points="507.7428,-250.5001 517.7428,-247 507.7427,-243.5001 507.7428,-250.5001"/>
</g>
<!-- AuthModule&#45;&gt;AppModule -->
<g id="edge5" class="edge">
<title>AuthModule&#45;&gt;AppModule</title>
<path fill="none" stroke="#000000" d="M388.7547,-198.1246C388.7547,-239.6261 388.7547,-338 388.7547,-338 388.7547,-338 481.989,-338 481.989,-338"/>
<polygon fill="#000000" stroke="#000000" points="481.9891,-341.5001 491.989,-338 481.989,-334.5001 481.9891,-341.5001"/>
</g>
<!-- AuthService  -->
<g id="node14" class="node">
<title>AuthService </title>
<polygon fill="#fb8072" stroke="#000000" points="295.9761,-274 206.0239,-274 206.0239,-238 295.9761,-238 295.9761,-274"/>
<text text-anchor="middle" x="251" y="-251.8" font-family="Times,serif" font-size="14.00" fill="#000000">AuthService </text>
</g>
<!-- AuthModule&#45;&gt;AuthService  -->
<g id="edge15" class="edge">
<title>AuthModule&#45;&gt;AuthService </title>
<path fill="none" stroke="#000000" stroke-dasharray="5,2" d="M371.2453,-198.0263C371.2453,-222.9773 371.2453,-265 371.2453,-265 371.2453,-265 305.7749,-265 305.7749,-265"/>
<polygon fill="#000000" stroke="#000000" points="305.7749,-261.5001 295.7749,-265 305.7749,-268.5001 305.7749,-261.5001"/>
</g>
<!-- BullBoardModule -->
<g id="node6" class="node">
<title>BullBoardModule</title>
<polygon fill="#8dd3c7" stroke="#000000" points="757.8795,-274 754.8795,-278 733.8795,-278 730.8795,-274 640.1205,-274 640.1205,-238 757.8795,-238 757.8795,-274"/>
<text text-anchor="middle" x="699" y="-251.8" font-family="Times,serif" font-size="14.00" fill="#000000">BullBoardModule</text>
</g>
<!-- BullBoardModule&#45;&gt;AppModule -->
<g id="edge6" class="edge">
<title>BullBoardModule&#45;&gt;AppModule</title>
<path fill="none" stroke="#000000" d="M699,-274.0449C699,-295.6623 699,-329 699,-329 699,-329 586.0634,-329 586.0634,-329"/>
<polygon fill="#000000" stroke="#000000" points="586.0634,-325.5001 576.0634,-329 586.0634,-332.5001 586.0634,-325.5001"/>
</g>
<!-- FilesModule&#45;&gt;BullBoardModule -->
<g id="edge17" class="edge">
<title>FilesModule&#45;&gt;BullBoardModule</title>
<path fill="none" stroke="#000000" d="M634.1508,-198.0109C634.1508,-220.4852 634.1508,-256 634.1508,-256 634.1508,-256 634.7037,-256 634.7037,-256"/>
<polygon fill="#000000" stroke="#000000" points="629.6798,-259.5002 639.6798,-256 629.6797,-252.5002 629.6798,-259.5002"/>
</g>
<!-- FilesModule&#45;&gt;SettingsModule -->
<g id="edge28" class="edge">
<title>FilesModule&#45;&gt;SettingsModule</title>
<path fill="none" stroke="#000000" d="M578.5196,-198.0109C578.5196,-198.0109 578.5196,-227.855 578.5196,-227.855"/>
<polygon fill="#000000" stroke="#000000" points="575.0197,-227.8549 578.5196,-237.855 582.0197,-227.855 575.0197,-227.8549"/>
</g>
<!-- FilesModule&#45;&gt;AppModule -->
<g id="edge7" class="edge">
<title>FilesModule&#45;&gt;AppModule</title>
<path fill="none" stroke="#000000" d="M628.2412,-198.2733C628.2412,-236.6253 628.2412,-322 628.2412,-322 628.2412,-322 585.8844,-322 585.8844,-322"/>
<polygon fill="#000000" stroke="#000000" points="585.8844,-318.5001 575.8844,-322 585.8844,-325.5001 585.8844,-318.5001"/>
</g>
<!-- FilesService  -->
<g id="node18" class="node">
<title>FilesService </title>
<polygon fill="#fb8072" stroke="#000000" points="333.2011,-122 244.7989,-122 244.7989,-86 333.2011,-86 333.2011,-122"/>
<text text-anchor="middle" x="289" y="-99.8" font-family="Times,serif" font-size="14.00" fill="#000000">FilesService </text>
</g>
<!-- FilesModule&#45;&gt;FilesService  -->
<g id="edge21" class="edge">
<title>FilesModule&#45;&gt;FilesService </title>
<path fill="none" stroke="#000000" stroke-dasharray="5,2" d="M584.6761,-161.9672C584.6761,-155.1474 584.6761,-149 584.6761,-149 584.6761,-149 314.823,-149 314.823,-149 314.823,-149 314.823,-132.0439 314.823,-132.0439"/>
<polygon fill="#000000" stroke="#000000" points="318.323,-132.0439 314.823,-122.0439 311.323,-132.044 318.323,-132.0439"/>
</g>
<!-- HealthModule -->
<g id="node8" class="node">
<title>HealthModule</title>
<polygon fill="#8dd3c7" stroke="#000000" points="538.3669,-198 535.3669,-202 514.3669,-202 511.3669,-198 441.6331,-198 441.6331,-162 538.3669,-162 538.3669,-198"/>
<text text-anchor="middle" x="490" y="-175.8" font-family="Times,serif" font-size="14.00" fill="#000000">HealthModule</text>
</g>
<!-- HealthModule&#45;&gt;AppModule -->
<g id="edge8" class="edge">
<title>HealthModule&#45;&gt;AppModule</title>
<path fill="none" stroke="#000000" d="M500.6706,-198.0333C500.6706,-198.0333 500.6706,-303.9902 500.6706,-303.9902"/>
<polygon fill="#000000" stroke="#000000" points="497.1707,-303.9901 500.6706,-313.9902 504.1707,-303.9902 497.1707,-303.9901"/>
</g>
<!-- MailerModule -->
<g id="node9" class="node">
<title>MailerModule</title>
<polygon fill="#8dd3c7" stroke="#000000" points="758.3655,-198 755.3655,-202 734.3655,-202 731.3655,-198 661.6345,-198 661.6345,-162 758.3655,-162 758.3655,-198"/>
<text text-anchor="middle" x="710" y="-175.8" font-family="Times,serif" font-size="14.00" fill="#000000">MailerModule</text>
</g>
<!-- MailerModule&#45;&gt;AppModule -->
<g id="edge9" class="edge">
<title>MailerModule&#45;&gt;AppModule</title>
<path fill="none" stroke="#000000" d="M709.7535,-198.1097C709.7535,-207.897 709.7535,-218 709.7535,-218 709.7535,-218 509.1695,-218 509.1695,-218 509.1695,-218 509.1695,-303.9364 509.1695,-303.9364"/>
<polygon fill="#000000" stroke="#000000" points="505.6696,-303.9363 509.1695,-313.9364 512.6696,-303.9364 505.6696,-303.9363"/>
</g>
<!-- MailerService  -->
<g id="node21" class="node">
<title>MailerService </title>
<polygon fill="#fb8072" stroke="#000000" points="1087.2934,-122 988.7066,-122 988.7066,-86 1087.2934,-86 1087.2934,-122"/>
<text text-anchor="middle" x="1038" y="-99.8" font-family="Times,serif" font-size="14.00" fill="#000000">MailerService </text>
</g>
<!-- MailerModule&#45;&gt;MailerService  -->
<g id="edge24" class="edge">
<title>MailerModule&#45;&gt;MailerService </title>
<path fill="none" stroke="#000000" stroke-dasharray="5,2" d="M712.5586,-161.8726C712.5586,-151.2891 712.5586,-140 712.5586,-140 712.5586,-140 1012.3137,-140 1012.3137,-140 1012.3137,-140 1012.3137,-132.4218 1012.3137,-132.4218"/>
<polygon fill="#000000" stroke="#000000" points="1015.8138,-132.4218 1012.3137,-122.4218 1008.8138,-132.4219 1015.8138,-132.4218"/>
</g>
<!-- SettingsModule&#45;&gt;AppModule -->
<g id="edge10" class="edge">
<title>SettingsModule&#45;&gt;AppModule</title>
<path fill="none" stroke="#000000" d="M556.4416,-274.0109C556.4416,-274.0109 556.4416,-303.855 556.4416,-303.855"/>
<polygon fill="#000000" stroke="#000000" points="552.9417,-303.8549 556.4416,-313.855 559.9417,-303.855 552.9417,-303.8549"/>
</g>
<!-- SettingsService  -->
<g id="node24" class="node">
<title>SettingsService </title>
<polygon fill="#fb8072" stroke="#000000" points="296.092,-350 189.908,-350 189.908,-314 296.092,-314 296.092,-350"/>
<text text-anchor="middle" x="243" y="-327.8" font-family="Times,serif" font-size="14.00" fill="#000000">SettingsService </text>
</g>
<!-- SettingsModule&#45;&gt;SettingsService  -->
<g id="edge31" class="edge">
<title>SettingsModule&#45;&gt;SettingsService </title>
<path fill="none" stroke="#000000" stroke-dasharray="5,2" d="M517.6068,-256C477.6025,-256 429.2954,-256 429.2954,-256 429.2954,-256 429.2954,-326 429.2954,-326 429.2954,-326 306.3848,-326 306.3848,-326"/>
<polygon fill="#000000" stroke="#000000" points="306.3848,-322.5001 296.3848,-326 306.3847,-329.5001 306.3848,-322.5001"/>
</g>
<!-- Logger  -->
<g id="node12" class="node">
<title>Logger </title>
<polygon fill="#fb8072" stroke="#000000" points="612.9278,-418 553.0722,-418 553.0722,-382 612.9278,-382 612.9278,-418"/>
<text text-anchor="middle" x="583" y="-395.8" font-family="Times,serif" font-size="14.00" fill="#000000">Logger </text>
</g>
<!-- AppModule&#45;&gt;Logger  -->
<g id="edge12" class="edge">
<title>AppModule&#45;&gt;Logger </title>
<path fill="none" stroke="#000000" stroke-dasharray="5,2" d="M564.4322,-350.2228C564.4322,-350.2228 564.4322,-371.7269 564.4322,-371.7269"/>
<polygon fill="#000000" stroke="#000000" points="560.9322,-371.7269 564.4322,-381.7269 567.9322,-371.727 560.9322,-371.7269"/>
</g>
<!-- MailerModule  -->
<g id="node13" class="node">
<title>MailerModule </title>
<polygon fill="#fb8072" stroke="#000000" points="535.3661,-418 434.6339,-418 434.6339,-382 535.3661,-382 535.3661,-418"/>
<text text-anchor="middle" x="485" y="-395.8" font-family="Times,serif" font-size="14.00" fill="#000000">MailerModule </text>
</g>
<!-- AppModule&#45;&gt;MailerModule  -->
<g id="edge13" class="edge">
<title>AppModule&#45;&gt;MailerModule </title>
<path fill="none" stroke="#000000" stroke-dasharray="5,2" d="M513.6773,-350.2228C513.6773,-350.2228 513.6773,-371.7269 513.6773,-371.7269"/>
<polygon fill="#000000" stroke="#000000" points="510.1773,-371.7269 513.6773,-381.7269 517.1773,-371.727 510.1773,-371.7269"/>
</g>
<!-- AuthService -->
<g id="node15" class="node">
<title>AuthService</title>
<ellipse fill="#fdb462" stroke="#000000" cx="123" cy="-256" rx="59.1083" ry="18"/>
<text text-anchor="middle" x="123" y="-251.8" font-family="Times,serif" font-size="14.00" fill="#000000">AuthService</text>
</g>
<!-- AuthService&#45;&gt;AuthModule -->
<g id="edge16" class="edge">
<title>AuthService&#45;&gt;AuthModule</title>
<path fill="none" stroke="#000000" d="M175.3964,-247.1961C175.3964,-233.3389 175.3964,-208 175.3964,-208 175.3964,-208 353.7359,-208 353.7359,-208 353.7359,-208 353.7359,-207.0207 353.7359,-207.0207"/>
<polygon fill="#000000" stroke="#000000" points="357.236,-208.2069 353.7359,-198.207 350.236,-208.207 357.236,-208.2069"/>
</g>
<!-- BullBoardProvider -->
<g id="node16" class="node">
<title>BullBoardProvider</title>
<ellipse fill="#fdb462" stroke="#000000" cx="883" cy="-180" rx="84.5498" ry="18"/>
<text text-anchor="middle" x="883" y="-175.8" font-family="Times,serif" font-size="14.00" fill="#000000">BullBoardProvider</text>
</g>
<!-- BullBoardProvider&#45;&gt;BullBoardModule -->
<g id="edge18" class="edge">
<title>BullBoardProvider&#45;&gt;BullBoardModule</title>
<path fill="none" stroke="#000000" d="M883,-198.0109C883,-220.4852 883,-256 883,-256 883,-256 767.978,-256 767.978,-256"/>
<polygon fill="#000000" stroke="#000000" points="767.978,-252.5001 757.978,-256 767.9779,-259.5001 767.978,-252.5001"/>
</g>
<!-- StorageModule -->
<g id="node17" class="node">
<title>StorageModule</title>
<polygon fill="#8dd3c7" stroke="#000000" points="221.3133,-122 218.3133,-126 197.3133,-126 194.3133,-122 118.6867,-122 118.6867,-86 221.3133,-86 221.3133,-122"/>
<text text-anchor="middle" x="170" y="-99.8" font-family="Times,serif" font-size="14.00" fill="#000000">StorageModule</text>
</g>
<!-- StorageModule&#45;&gt;FilesModule -->
<g id="edge19" class="edge">
<title>StorageModule&#45;&gt;FilesModule</title>
<path fill="none" stroke="#000000" d="M213.8372,-122.0511C213.8372,-136.373 213.8372,-154 213.8372,-154 213.8372,-154 570.6448,-154 570.6448,-154 570.6448,-154 570.6448,-154.7942 570.6448,-154.7942"/>
<polygon fill="#000000" stroke="#000000" points="567.145,-151.9421 570.6448,-161.9421 574.145,-151.9422 567.145,-151.9421"/>
</g>
<!-- StorageModule&#45;&gt;SettingsModule -->
<g id="edge29" class="edge">
<title>StorageModule&#45;&gt;SettingsModule</title>
<path fill="none" stroke="#000000" d="M206.5181,-122.2819C206.5181,-137.9478 206.5181,-158 206.5181,-158 206.5181,-158 547.5235,-158 547.5235,-158 547.5235,-158 547.5235,-227.5669 547.5235,-227.5669"/>
<polygon fill="#000000" stroke="#000000" points="544.0236,-227.5669 547.5235,-237.5669 551.0236,-227.567 544.0236,-227.5669"/>
</g>
<!-- StorageService  -->
<g id="node26" class="node">
<title>StorageService </title>
<polygon fill="#fb8072" stroke="#000000" points="296.2409,-198 191.7591,-198 191.7591,-162 296.2409,-162 296.2409,-198"/>
<text text-anchor="middle" x="244" y="-175.8" font-family="Times,serif" font-size="14.00" fill="#000000">StorageService </text>
</g>
<!-- StorageModule&#45;&gt;StorageService  -->
<g id="edge33" class="edge">
<title>StorageModule&#45;&gt;StorageService </title>
<path fill="none" stroke="#000000" stroke-dasharray="5,2" d="M199.1989,-122.0109C199.1989,-122.0109 199.1989,-151.855 199.1989,-151.855"/>
<polygon fill="#000000" stroke="#000000" points="195.699,-151.8549 199.1989,-161.855 202.699,-151.855 195.699,-151.8549"/>
</g>
<!-- FilesProcessor -->
<g id="node19" class="node">
<title>FilesProcessor</title>
<ellipse fill="#fdb462" stroke="#000000" cx="424" cy="-104" rx="67.2081" ry="18"/>
<text text-anchor="middle" x="424" y="-99.8" font-family="Times,serif" font-size="14.00" fill="#000000">FilesProcessor</text>
</g>
<!-- FilesProcessor&#45;&gt;FilesModule -->
<g id="edge22" class="edge">
<title>FilesProcessor&#45;&gt;FilesModule</title>
<path fill="none" stroke="#000000" d="M466.4602,-118.3398C466.4602,-130.163 466.4602,-145 466.4602,-145 466.4602,-145 598.7073,-145 598.7073,-145 598.7073,-145 598.7073,-151.68 598.7073,-151.68"/>
<polygon fill="#000000" stroke="#000000" points="595.2074,-151.6799 598.7073,-161.68 602.2074,-151.68 595.2074,-151.6799"/>
</g>
<!-- FilesService -->
<g id="node20" class="node">
<title>FilesService</title>
<ellipse fill="#fdb462" stroke="#000000" cx="568" cy="-104" rx="58.5405" ry="18"/>
<text text-anchor="middle" x="568" y="-99.8" font-family="Times,serif" font-size="14.00" fill="#000000">FilesService</text>
</g>
<!-- FilesService&#45;&gt;FilesModule -->
<g id="edge23" class="edge">
<title>FilesService&#45;&gt;FilesModule</title>
<path fill="none" stroke="#000000" d="M612.7386,-115.875C612.7386,-115.875 612.7386,-151.9891 612.7386,-151.9891"/>
<polygon fill="#000000" stroke="#000000" points="609.2387,-151.989 612.7386,-161.9891 616.2387,-151.9891 609.2387,-151.989"/>
</g>
<!-- MailerProcessor -->
<g id="node22" class="node">
<title>MailerProcessor</title>
<ellipse fill="#fdb462" stroke="#000000" cx="741" cy="-104" rx="74.1316" ry="18"/>
<text text-anchor="middle" x="741" y="-99.8" font-family="Times,serif" font-size="14.00" fill="#000000">MailerProcessor</text>
</g>
<!-- MailerProcessor&#45;&gt;MailerModule -->
<g id="edge25" class="edge">
<title>MailerProcessor&#45;&gt;MailerModule</title>
<path fill="none" stroke="#000000" d="M689.6215,-117.2382C689.6215,-117.2382 689.6215,-151.7901 689.6215,-151.7901"/>
<polygon fill="#000000" stroke="#000000" points="686.1216,-151.79 689.6215,-161.7901 693.1216,-151.7901 686.1216,-151.79"/>
</g>
<!-- MailerService -->
<g id="node23" class="node">
<title>MailerService</title>
<ellipse fill="#fdb462" stroke="#000000" cx="899" cy="-104" rx="65.9638" ry="18"/>
<text text-anchor="middle" x="899" y="-99.8" font-family="Times,serif" font-size="14.00" fill="#000000">MailerService</text>
</g>
<!-- MailerService&#45;&gt;MailerModule -->
<g id="edge26" class="edge">
<title>MailerService&#45;&gt;MailerModule</title>
<path fill="none" stroke="#000000" d="M899,-122.2434C899,-129.4297 899,-136 899,-136 899,-136 735.4956,-136 735.4956,-136 735.4956,-136 735.4956,-151.8495 735.4956,-151.8495"/>
<polygon fill="#000000" stroke="#000000" points="731.9957,-151.8494 735.4956,-161.8495 738.9957,-151.8495 731.9957,-151.8494"/>
</g>
<!-- SettingsService -->
<g id="node25" class="node">
<title>SettingsService</title>
<ellipse fill="#fdb462" stroke="#000000" cx="95" cy="-332" rx="71.221" ry="18"/>
<text text-anchor="middle" x="95" y="-327.8" font-family="Times,serif" font-size="14.00" fill="#000000">SettingsService</text>
</g>
<!-- SettingsService&#45;&gt;SettingsModule -->
<g id="edge32" class="edge">
<title>SettingsService&#45;&gt;SettingsModule</title>
<path fill="none" stroke="#000000" d="M114.9033,-314.335C114.9033,-304.4115 114.9033,-294 114.9033,-294 114.9033,-294 537.0549,-294 537.0549,-294 537.0549,-294 537.0549,-284.1097 537.0549,-284.1097"/>
<polygon fill="#000000" stroke="#000000" points="540.555,-284.1096 537.0549,-274.1097 533.555,-284.1097 540.555,-284.1096"/>
</g>
<!-- StorageService -->
<g id="node27" class="node">
<title>StorageService</title>
<ellipse fill="#fdb462" stroke="#000000" cx="99" cy="-180" rx="69.4781" ry="18"/>
<text text-anchor="middle" x="99" y="-175.8" font-family="Times,serif" font-size="14.00" fill="#000000">StorageService</text>
</g>
<!-- StorageService&#45;&gt;StorageModule -->
<g id="edge34" class="edge">
<title>StorageService&#45;&gt;StorageModule</title>
<path fill="none" stroke="#000000" d="M143.6663,-166.0604C143.6663,-166.0604 143.6663,-132.1556 143.6663,-132.1556"/>
<polygon fill="#000000" stroke="#000000" points="147.1664,-132.1556 143.6663,-122.1556 140.1664,-132.1556 147.1664,-132.1556"/>
</g>
<!-- UsersService -->
<g id="node29" class="node">
<title>UsersService</title>
<ellipse fill="#fdb462" stroke="#000000" cx="1098" cy="-180" rx="61.9519" ry="18"/>
<text text-anchor="middle" x="1098" y="-175.8" font-family="Times,serif" font-size="14.00" fill="#000000">UsersService</text>
</g>
<!-- UsersService&#45;&gt;UsersModule -->
<g id="edge36" class="edge">
<title>UsersService&#45;&gt;UsersModule</title>
<path fill="none" stroke="#000000" d="M1123.6863,-163.5091C1123.6863,-141.1569 1123.6863,-104 1123.6863,-104 1123.6863,-104 1308.2332,-104 1308.2332,-104"/>
<polygon fill="#000000" stroke="#000000" points="1308.2332,-107.5001 1318.2332,-104 1308.2331,-100.5001 1308.2332,-107.5001"/>
</g>
</g>
</svg>
