<?xml version="1.0" encoding="UTF-8" standalone="no"?>
<!DOCTYPE svg PUBLIC "-//W3C//DTD SVG 1.1//EN"
 "http://www.w3.org/Graphics/SVG/1.1/DTD/svg11.dtd">
<!-- Generated by graphviz version 2.40.1 (20161225.0304)
 -->
<!-- Title: dependencies Pages: 1 -->
<svg width="504pt" height="211pt"
 viewBox="0.00 0.00 504.00 211.00" xmlns="http://www.w3.org/2000/svg" xmlns:xlink="http://www.w3.org/1999/xlink">
<g id="graph0" class="graph" transform="scale(1 1) rotate(0) translate(4 207)">
<title>dependencies</title>
<polygon fill="#ffffff" stroke="transparent" points="-4,4 -4,-207 500,-207 500,4 -4,4"/>
<text text-anchor="start" x="227.0091" y="-42.4" font-family="sans-serif" font-weight="bold" font-size="14.00" fill="#000000">Legend</text>
<polygon fill="#ffffb3" stroke="transparent" points="14,-10 14,-30 34,-30 34,-10 14,-10"/>
<text text-anchor="start" x="37.629" y="-15.4" font-family="sans-serif" font-size="14.00" fill="#000000"> &#160;Declarations</text>
<polygon fill="#8dd3c7" stroke="transparent" points="127,-10 127,-30 147,-30 147,-10 127,-10"/>
<text text-anchor="start" x="150.7251" y="-15.4" font-family="sans-serif" font-size="14.00" fill="#000000"> &#160;Module</text>
<polygon fill="#80b1d3" stroke="transparent" points="213,-10 213,-30 233,-30 233,-10 213,-10"/>
<text text-anchor="start" x="236.7812" y="-15.4" font-family="sans-serif" font-size="14.00" fill="#000000"> &#160;Bootstrap</text>
<polygon fill="#fdb462" stroke="transparent" points="310,-10 310,-30 330,-30 330,-10 310,-10"/>
<text text-anchor="start" x="333.6732" y="-15.4" font-family="sans-serif" font-size="14.00" fill="#000000"> &#160;Providers</text>
<polygon fill="#fb8072" stroke="transparent" points="406,-10 406,-30 426,-30 426,-10 406,-10"/>
<text text-anchor="start" x="429.7258" y="-15.4" font-family="sans-serif" font-size="14.00" fill="#000000"> &#160;Exports</text>
<g id="clust1" class="cluster">
<title>cluster_BullBoardModule</title>
<polygon fill="none" stroke="#000000" stroke-dasharray="1,5" points="92,-70 92,-195 404,-195 404,-70 92,-70"/>
</g>
<g id="clust3" class="cluster">
<title>cluster_BullBoardModule_imports</title>
<polygon fill="none" stroke="#000000" points="294,-78 294,-130 396,-130 396,-78 294,-78"/>
</g>
<g id="clust6" class="cluster">
<title>cluster_BullBoardModule_providers</title>
<polygon fill="none" stroke="#000000" points="100,-78 100,-130 286,-130 286,-78 100,-78"/>
</g>
<!-- FilesModule -->
<g id="node1" class="node">
<title>FilesModule</title>
<polygon fill="#8dd3c7" stroke="#000000" points="388.2731,-122 385.2731,-126 364.2731,-126 361.2731,-122 301.7269,-122 301.7269,-86 388.2731,-86 388.2731,-122"/>
<text text-anchor="middle" x="345" y="-99.8" font-family="Times,serif" font-size="14.00" fill="#000000">FilesModule</text>
</g>
<!-- BullBoardModule -->
<g id="node2" class="node">
<title>BullBoardModule</title>
<polygon fill="#8dd3c7" stroke="#000000" points="323.8795,-187 320.8795,-191 299.8795,-191 296.8795,-187 206.1205,-187 206.1205,-151 323.8795,-151 323.8795,-187"/>
<text text-anchor="middle" x="265" y="-164.8" font-family="Times,serif" font-size="14.00" fill="#000000">BullBoardModule</text>
</g>
<!-- FilesModule&#45;&gt;BullBoardModule -->
<g id="edge1" class="edge">
<title>FilesModule&#45;&gt;BullBoardModule</title>
<path fill="none" stroke="#000000" d="M312.7767,-122.1061C312.7767,-122.1061 312.7767,-140.991 312.7767,-140.991"/>
<polygon fill="#000000" stroke="#000000" points="309.2767,-140.9909 312.7767,-150.991 316.2767,-140.991 309.2767,-140.9909"/>
</g>
<!-- BullBoardProvider -->
<g id="node3" class="node">
<title>BullBoardProvider</title>
<ellipse fill="#fdb462" stroke="#000000" cx="193" cy="-104" rx="84.5498" ry="18"/>
<text text-anchor="middle" x="193" y="-99.8" font-family="Times,serif" font-size="14.00" fill="#000000">BullBoardProvider</text>
</g>
<!-- BullBoardProvider&#45;&gt;BullBoardModule -->
<g id="edge2" class="edge">
<title>BullBoardProvider&#45;&gt;BullBoardModule</title>
<path fill="none" stroke="#000000" d="M241.7926,-118.7495C241.7926,-118.7495 241.7926,-140.5882 241.7926,-140.5882"/>
<polygon fill="#000000" stroke="#000000" points="238.2927,-140.5881 241.7926,-150.5882 245.2927,-140.5882 238.2927,-140.5881"/>
</g>
</g>
</svg>
