<?xml version="1.0" encoding="UTF-8" standalone="no"?>
<!DOCTYPE svg PUBLIC "-//W3C//DTD SVG 1.1//EN"
 "http://www.w3.org/Graphics/SVG/1.1/DTD/svg11.dtd">
<!-- Generated by graphviz version 2.40.1 (20161225.0304)
 -->
<!-- Title: dependencies Pages: 1 -->
<svg width="562pt" height="284pt"
 viewBox="0.00 0.00 562.00 284.00" xmlns="http://www.w3.org/2000/svg" xmlns:xlink="http://www.w3.org/1999/xlink">
<g id="graph0" class="graph" transform="scale(1 1) rotate(0) translate(4 280)">
<title>dependencies</title>
<polygon fill="#ffffff" stroke="transparent" points="-4,4 -4,-280 558,-280 558,4 -4,4"/>
<text text-anchor="start" x="256.0091" y="-42.4" font-family="sans-serif" font-weight="bold" font-size="14.00" fill="#000000">Legend</text>
<polygon fill="#ffffb3" stroke="transparent" points="43,-10 43,-30 63,-30 63,-10 43,-10"/>
<text text-anchor="start" x="66.629" y="-15.4" font-family="sans-serif" font-size="14.00" fill="#000000"> &#160;Declarations</text>
<polygon fill="#8dd3c7" stroke="transparent" points="156,-10 156,-30 176,-30 176,-10 156,-10"/>
<text text-anchor="start" x="179.7251" y="-15.4" font-family="sans-serif" font-size="14.00" fill="#000000"> &#160;Module</text>
<polygon fill="#80b1d3" stroke="transparent" points="242,-10 242,-30 262,-30 262,-10 242,-10"/>
<text text-anchor="start" x="265.7812" y="-15.4" font-family="sans-serif" font-size="14.00" fill="#000000"> &#160;Bootstrap</text>
<polygon fill="#fdb462" stroke="transparent" points="339,-10 339,-30 359,-30 359,-10 339,-10"/>
<text text-anchor="start" x="362.6732" y="-15.4" font-family="sans-serif" font-size="14.00" fill="#000000"> &#160;Providers</text>
<polygon fill="#fb8072" stroke="transparent" points="435,-10 435,-30 455,-30 455,-10 435,-10"/>
<text text-anchor="start" x="458.7258" y="-15.4" font-family="sans-serif" font-size="14.00" fill="#000000"> &#160;Exports</text>
<g id="clust1" class="cluster">
<title>cluster_FilesModule</title>
<polygon fill="none" stroke="#000000" stroke-dasharray="1,5" points="8,-70 8,-268 546,-268 546,-70 8,-70"/>
</g>
<g id="clust3" class="cluster">
<title>cluster_FilesModule_imports</title>
<polygon fill="none" stroke="#000000" points="310,-78 310,-130 538,-130 538,-78 310,-78"/>
</g>
<g id="clust4" class="cluster">
<title>cluster_FilesModule_exports</title>
<polygon fill="none" stroke="#000000" points="243,-208 243,-260 347,-260 347,-208 243,-208"/>
</g>
<g id="clust6" class="cluster">
<title>cluster_FilesModule_providers</title>
<polygon fill="none" stroke="#000000" points="16,-78 16,-130 302,-130 302,-78 16,-78"/>
</g>
<!-- StorageModule -->
<g id="node1" class="node">
<title>StorageModule</title>
<polygon fill="#8dd3c7" stroke="#000000" points="530.3133,-122 527.3133,-126 506.3133,-126 503.3133,-122 427.6867,-122 427.6867,-86 530.3133,-86 530.3133,-122"/>
<text text-anchor="middle" x="479" y="-99.8" font-family="Times,serif" font-size="14.00" fill="#000000">StorageModule</text>
</g>
<!-- FilesModule -->
<g id="node3" class="node">
<title>FilesModule</title>
<polygon fill="#8dd3c7" stroke="#000000" points="338.2731,-187 335.2731,-191 314.2731,-191 311.2731,-187 251.7269,-187 251.7269,-151 338.2731,-151 338.2731,-187"/>
<text text-anchor="middle" x="295" y="-164.8" font-family="Times,serif" font-size="14.00" fill="#000000">FilesModule</text>
</g>
<!-- StorageModule&#45;&gt;FilesModule -->
<g id="edge1" class="edge">
<title>StorageModule&#45;&gt;FilesModule</title>
<path fill="none" stroke="#000000" d="M479,-122.1061C479,-141.3391 479,-169 479,-169 479,-169 348.6054,-169 348.6054,-169"/>
<polygon fill="#000000" stroke="#000000" points="348.6055,-165.5001 338.6054,-169 348.6054,-172.5001 348.6055,-165.5001"/>
</g>
<!-- UsersModule -->
<g id="node2" class="node">
<title>UsersModule</title>
<polygon fill="#8dd3c7" stroke="#000000" points="409.9218,-122 406.9218,-126 385.9218,-126 382.9218,-122 318.0782,-122 318.0782,-86 409.9218,-86 409.9218,-122"/>
<text text-anchor="middle" x="364" y="-99.8" font-family="Times,serif" font-size="14.00" fill="#000000">UsersModule</text>
</g>
<!-- UsersModule&#45;&gt;FilesModule -->
<g id="edge2" class="edge">
<title>UsersModule&#45;&gt;FilesModule</title>
<path fill="none" stroke="#000000" d="M328.338,-122.1061C328.338,-122.1061 328.338,-140.991 328.338,-140.991"/>
<polygon fill="#000000" stroke="#000000" points="324.8381,-140.9909 328.338,-150.991 331.8381,-140.991 324.8381,-140.9909"/>
</g>
<!-- FilesService  -->
<g id="node4" class="node">
<title>FilesService </title>
<polygon fill="#fb8072" stroke="#000000" points="339.2011,-252 250.7989,-252 250.7989,-216 339.2011,-216 339.2011,-252"/>
<text text-anchor="middle" x="295" y="-229.8" font-family="Times,serif" font-size="14.00" fill="#000000">FilesService </text>
</g>
<!-- FilesModule&#45;&gt;FilesService  -->
<g id="edge3" class="edge">
<title>FilesModule&#45;&gt;FilesService </title>
<path fill="none" stroke="#000000" stroke-dasharray="5,2" d="M295,-187.1061C295,-187.1061 295,-205.991 295,-205.991"/>
<polygon fill="#000000" stroke="#000000" points="291.5001,-205.9909 295,-215.991 298.5001,-205.991 291.5001,-205.9909"/>
</g>
<!-- FilesProcessor -->
<g id="node5" class="node">
<title>FilesProcessor</title>
<ellipse fill="#fdb462" stroke="#000000" cx="227" cy="-104" rx="67.2081" ry="18"/>
<text text-anchor="middle" x="227" y="-99.8" font-family="Times,serif" font-size="14.00" fill="#000000">FilesProcessor</text>
</g>
<!-- FilesProcessor&#45;&gt;FilesModule -->
<g id="edge4" class="edge">
<title>FilesProcessor&#45;&gt;FilesModule</title>
<path fill="none" stroke="#000000" d="M272.9837,-117.1537C272.9837,-117.1537 272.9837,-140.6938 272.9837,-140.6938"/>
<polygon fill="#000000" stroke="#000000" points="269.4838,-140.6938 272.9837,-150.6938 276.4838,-140.6939 269.4838,-140.6938"/>
</g>
<!-- FilesService -->
<g id="node6" class="node">
<title>FilesService</title>
<ellipse fill="#fdb462" stroke="#000000" cx="83" cy="-104" rx="58.5405" ry="18"/>
<text text-anchor="middle" x="83" y="-99.8" font-family="Times,serif" font-size="14.00" fill="#000000">FilesService</text>
</g>
<!-- FilesService&#45;&gt;FilesModule -->
<g id="edge5" class="edge">
<title>FilesService&#45;&gt;FilesModule</title>
<path fill="none" stroke="#000000" d="M83,-122.1061C83,-141.3391 83,-169 83,-169 83,-169 241.5871,-169 241.5871,-169"/>
<polygon fill="#000000" stroke="#000000" points="241.5871,-172.5001 251.5871,-169 241.587,-165.5001 241.5871,-172.5001"/>
</g>
</g>
</svg>
