<?xml version="1.0" encoding="UTF-8" standalone="no"?>
<!DOCTYPE svg PUBLIC "-//W3C//DTD SVG 1.1//EN"
 "http://www.w3.org/Graphics/SVG/1.1/DTD/svg11.dtd">
<!-- Generated by graphviz version 2.40.1 (20161225.0304)
 -->
<!-- Title: dependencies Pages: 1 -->
<svg width="504pt" height="284pt"
 viewBox="0.00 0.00 504.00 284.00" xmlns="http://www.w3.org/2000/svg" xmlns:xlink="http://www.w3.org/1999/xlink">
<g id="graph0" class="graph" transform="scale(1 1) rotate(0) translate(4 280)">
<title>dependencies</title>
<polygon fill="#ffffff" stroke="transparent" points="-4,4 -4,-280 500,-280 500,4 -4,4"/>
<text text-anchor="start" x="227.0091" y="-42.4" font-family="sans-serif" font-weight="bold" font-size="14.00" fill="#000000">Legend</text>
<polygon fill="#ffffb3" stroke="transparent" points="14,-10 14,-30 34,-30 34,-10 14,-10"/>
<text text-anchor="start" x="37.629" y="-15.4" font-family="sans-serif" font-size="14.00" fill="#000000"> &#160;Declarations</text>
<polygon fill="#8dd3c7" stroke="transparent" points="127,-10 127,-30 147,-30 147,-10 127,-10"/>
<text text-anchor="start" x="150.7251" y="-15.4" font-family="sans-serif" font-size="14.00" fill="#000000"> &#160;Module</text>
<polygon fill="#80b1d3" stroke="transparent" points="213,-10 213,-30 233,-30 233,-10 213,-10"/>
<text text-anchor="start" x="236.7812" y="-15.4" font-family="sans-serif" font-size="14.00" fill="#000000"> &#160;Bootstrap</text>
<polygon fill="#fdb462" stroke="transparent" points="310,-10 310,-30 330,-30 330,-10 310,-10"/>
<text text-anchor="start" x="333.6732" y="-15.4" font-family="sans-serif" font-size="14.00" fill="#000000"> &#160;Providers</text>
<polygon fill="#fb8072" stroke="transparent" points="406,-10 406,-30 426,-30 426,-10 406,-10"/>
<text text-anchor="start" x="429.7258" y="-15.4" font-family="sans-serif" font-size="14.00" fill="#000000"> &#160;Exports</text>
<g id="clust1" class="cluster">
<title>cluster_FilesModule</title>
<polygon fill="none" stroke="#000000" stroke-dasharray="1,5" points="34,-70 34,-268 462,-268 462,-70 34,-70"/>
</g>
<g id="clust3" class="cluster">
<title>cluster_FilesModule_imports</title>
<polygon fill="none" stroke="#000000" points="336,-78 336,-130 454,-130 454,-78 336,-78"/>
</g>
<g id="clust4" class="cluster">
<title>cluster_FilesModule_exports</title>
<polygon fill="none" stroke="#000000" points="201,-208 201,-260 305,-260 305,-208 201,-208"/>
</g>
<g id="clust6" class="cluster">
<title>cluster_FilesModule_providers</title>
<polygon fill="none" stroke="#000000" points="42,-78 42,-130 328,-130 328,-78 42,-78"/>
</g>
<!-- StorageModule -->
<g id="node1" class="node">
<title>StorageModule</title>
<polygon fill="#8dd3c7" stroke="#000000" points="446.3133,-122 443.3133,-126 422.3133,-126 419.3133,-122 343.6867,-122 343.6867,-86 446.3133,-86 446.3133,-122"/>
<text text-anchor="middle" x="395" y="-99.8" font-family="Times,serif" font-size="14.00" fill="#000000">StorageModule</text>
</g>
<!-- FilesModule -->
<g id="node2" class="node">
<title>FilesModule</title>
<polygon fill="#8dd3c7" stroke="#000000" points="296.2731,-187 293.2731,-191 272.2731,-191 269.2731,-187 209.7269,-187 209.7269,-151 296.2731,-151 296.2731,-187"/>
<text text-anchor="middle" x="253" y="-164.8" font-family="Times,serif" font-size="14.00" fill="#000000">FilesModule</text>
</g>
<!-- StorageModule&#45;&gt;FilesModule -->
<g id="edge1" class="edge">
<title>StorageModule&#45;&gt;FilesModule</title>
<path fill="none" stroke="#000000" d="M395,-122.1061C395,-141.3391 395,-169 395,-169 395,-169 306.3763,-169 306.3763,-169"/>
<polygon fill="#000000" stroke="#000000" points="306.3763,-165.5001 296.3763,-169 306.3762,-172.5001 306.3763,-165.5001"/>
</g>
<!-- FilesService  -->
<g id="node3" class="node">
<title>FilesService </title>
<polygon fill="#fb8072" stroke="#000000" points="297.2011,-252 208.7989,-252 208.7989,-216 297.2011,-216 297.2011,-252"/>
<text text-anchor="middle" x="253" y="-229.8" font-family="Times,serif" font-size="14.00" fill="#000000">FilesService </text>
</g>
<!-- FilesModule&#45;&gt;FilesService  -->
<g id="edge2" class="edge">
<title>FilesModule&#45;&gt;FilesService </title>
<path fill="none" stroke="#000000" stroke-dasharray="5,2" d="M253,-187.1061C253,-187.1061 253,-205.991 253,-205.991"/>
<polygon fill="#000000" stroke="#000000" points="249.5001,-205.9909 253,-215.991 256.5001,-205.991 249.5001,-205.9909"/>
</g>
<!-- FilesProcessor -->
<g id="node4" class="node">
<title>FilesProcessor</title>
<ellipse fill="#fdb462" stroke="#000000" cx="253" cy="-104" rx="67.2081" ry="18"/>
<text text-anchor="middle" x="253" y="-99.8" font-family="Times,serif" font-size="14.00" fill="#000000">FilesProcessor</text>
</g>
<!-- FilesProcessor&#45;&gt;FilesModule -->
<g id="edge3" class="edge">
<title>FilesProcessor&#45;&gt;FilesModule</title>
<path fill="none" stroke="#000000" d="M253,-122.1061C253,-122.1061 253,-140.991 253,-140.991"/>
<polygon fill="#000000" stroke="#000000" points="249.5001,-140.9909 253,-150.991 256.5001,-140.991 249.5001,-140.9909"/>
</g>
<!-- FilesService -->
<g id="node5" class="node">
<title>FilesService</title>
<ellipse fill="#fdb462" stroke="#000000" cx="109" cy="-104" rx="58.5405" ry="18"/>
<text text-anchor="middle" x="109" y="-99.8" font-family="Times,serif" font-size="14.00" fill="#000000">FilesService</text>
</g>
<!-- FilesService&#45;&gt;FilesModule -->
<g id="edge4" class="edge">
<title>FilesService&#45;&gt;FilesModule</title>
<path fill="none" stroke="#000000" d="M109,-122.1061C109,-141.3391 109,-169 109,-169 109,-169 199.4045,-169 199.4045,-169"/>
<polygon fill="#000000" stroke="#000000" points="199.4045,-172.5001 209.4045,-169 199.4044,-165.5001 199.4045,-172.5001"/>
</g>
</g>
</svg>
