<?xml version="1.0" encoding="UTF-8" standalone="no"?>
<!DOCTYPE svg PUBLIC "-//W3C//DTD SVG 1.1//EN"
 "http://www.w3.org/Graphics/SVG/1.1/DTD/svg11.dtd">
<!-- Generated by graphviz version 2.40.1 (20161225.0304)
 -->
<!-- Title: dependencies Pages: 1 -->
<svg width="504pt" height="284pt"
 viewBox="0.00 0.00 504.00 284.00" xmlns="http://www.w3.org/2000/svg" xmlns:xlink="http://www.w3.org/1999/xlink">
<g id="graph0" class="graph" transform="scale(1 1) rotate(0) translate(4 280)">
<title>dependencies</title>
<polygon fill="#ffffff" stroke="transparent" points="-4,4 -4,-280 500,-280 500,4 -4,4"/>
<text text-anchor="start" x="227.0091" y="-42.4" font-family="sans-serif" font-weight="bold" font-size="14.00" fill="#000000">Legend</text>
<polygon fill="#ffffb3" stroke="transparent" points="14,-10 14,-30 34,-30 34,-10 14,-10"/>
<text text-anchor="start" x="37.629" y="-15.4" font-family="sans-serif" font-size="14.00" fill="#000000"> &#160;Declarations</text>
<polygon fill="#8dd3c7" stroke="transparent" points="127,-10 127,-30 147,-30 147,-10 127,-10"/>
<text text-anchor="start" x="150.7251" y="-15.4" font-family="sans-serif" font-size="14.00" fill="#000000"> &#160;Module</text>
<polygon fill="#80b1d3" stroke="transparent" points="213,-10 213,-30 233,-30 233,-10 213,-10"/>
<text text-anchor="start" x="236.7812" y="-15.4" font-family="sans-serif" font-size="14.00" fill="#000000"> &#160;Bootstrap</text>
<polygon fill="#fdb462" stroke="transparent" points="310,-10 310,-30 330,-30 330,-10 310,-10"/>
<text text-anchor="start" x="333.6732" y="-15.4" font-family="sans-serif" font-size="14.00" fill="#000000"> &#160;Providers</text>
<polygon fill="#fb8072" stroke="transparent" points="406,-10 406,-30 426,-30 426,-10 406,-10"/>
<text text-anchor="start" x="429.7258" y="-15.4" font-family="sans-serif" font-size="14.00" fill="#000000"> &#160;Exports</text>
<g id="clust1" class="cluster">
<title>cluster_MailerModule</title>
<polygon fill="none" stroke="#000000" stroke-dasharray="1,5" points="83,-70 83,-268 413,-268 413,-70 83,-70"/>
</g>
<g id="clust4" class="cluster">
<title>cluster_MailerModule_exports</title>
<polygon fill="none" stroke="#000000" points="187,-208 187,-260 301,-260 301,-208 187,-208"/>
</g>
<g id="clust6" class="cluster">
<title>cluster_MailerModule_providers</title>
<polygon fill="none" stroke="#000000" points="91,-78 91,-130 405,-130 405,-78 91,-78"/>
</g>
<!-- MailerService  -->
<g id="node1" class="node">
<title>MailerService </title>
<polygon fill="#fb8072" stroke="#000000" points="293.2934,-252 194.7066,-252 194.7066,-216 293.2934,-216 293.2934,-252"/>
<text text-anchor="middle" x="244" y="-229.8" font-family="Times,serif" font-size="14.00" fill="#000000">MailerService </text>
</g>
<!-- MailerModule -->
<g id="node2" class="node">
<title>MailerModule</title>
<polygon fill="#8dd3c7" stroke="#000000" points="292.3655,-187 289.3655,-191 268.3655,-191 265.3655,-187 195.6345,-187 195.6345,-151 292.3655,-151 292.3655,-187"/>
<text text-anchor="middle" x="244" y="-164.8" font-family="Times,serif" font-size="14.00" fill="#000000">MailerModule</text>
</g>
<!-- MailerModule&#45;&gt;MailerService  -->
<g id="edge1" class="edge">
<title>MailerModule&#45;&gt;MailerService </title>
<path fill="none" stroke="#000000" stroke-dasharray="5,2" d="M244,-187.1061C244,-187.1061 244,-205.991 244,-205.991"/>
<polygon fill="#000000" stroke="#000000" points="240.5001,-205.9909 244,-215.991 247.5001,-205.991 240.5001,-205.9909"/>
</g>
<!-- MailerProcessor -->
<g id="node3" class="node">
<title>MailerProcessor</title>
<ellipse fill="#fdb462" stroke="#000000" cx="323" cy="-104" rx="74.1316" ry="18"/>
<text text-anchor="middle" x="323" y="-99.8" font-family="Times,serif" font-size="14.00" fill="#000000">MailerProcessor</text>
</g>
<!-- MailerProcessor&#45;&gt;MailerModule -->
<g id="edge2" class="edge">
<title>MailerProcessor&#45;&gt;MailerModule</title>
<path fill="none" stroke="#000000" d="M270.5586,-116.8419C270.5586,-116.8419 270.5586,-140.5231 270.5586,-140.5231"/>
<polygon fill="#000000" stroke="#000000" points="267.0587,-140.523 270.5586,-150.5231 274.0587,-140.5231 267.0587,-140.523"/>
</g>
<!-- MailerService -->
<g id="node4" class="node">
<title>MailerService</title>
<ellipse fill="#fdb462" stroke="#000000" cx="165" cy="-104" rx="65.9638" ry="18"/>
<text text-anchor="middle" x="165" y="-99.8" font-family="Times,serif" font-size="14.00" fill="#000000">MailerService</text>
</g>
<!-- MailerService&#45;&gt;MailerModule -->
<g id="edge3" class="edge">
<title>MailerService&#45;&gt;MailerModule</title>
<path fill="none" stroke="#000000" d="M213.1494,-116.5327C213.1494,-116.5327 213.1494,-140.8507 213.1494,-140.8507"/>
<polygon fill="#000000" stroke="#000000" points="209.6495,-140.8506 213.1494,-150.8507 216.6495,-140.8507 209.6495,-140.8506"/>
</g>
</g>
</svg>
