<?xml version="1.0" encoding="UTF-8" standalone="no"?>
<!DOCTYPE svg PUBLIC "-//W3C//DTD SVG 1.1//EN"
 "http://www.w3.org/Graphics/SVG/1.1/DTD/svg11.dtd">
<!-- Generated by graphviz version 2.40.1 (20161225.0304)
 -->
<!-- Title: dependencies Pages: 1 -->
<svg width="1112pt" height="284pt"
 viewBox="0.00 0.00 1112.00 284.00" xmlns="http://www.w3.org/2000/svg" xmlns:xlink="http://www.w3.org/1999/xlink">
<g id="graph0" class="graph" transform="scale(1 1) rotate(0) translate(4 280)">
<title>dependencies</title>
<polygon fill="#ffffff" stroke="transparent" points="-4,4 -4,-280 1108,-280 1108,4 -4,4"/>
<text text-anchor="start" x="531.0091" y="-42.4" font-family="sans-serif" font-weight="bold" font-size="14.00" fill="#000000">Legend</text>
<polygon fill="#ffffb3" stroke="transparent" points="318,-10 318,-30 338,-30 338,-10 318,-10"/>
<text text-anchor="start" x="341.629" y="-15.4" font-family="sans-serif" font-size="14.00" fill="#000000"> &#160;Declarations</text>
<polygon fill="#8dd3c7" stroke="transparent" points="431,-10 431,-30 451,-30 451,-10 431,-10"/>
<text text-anchor="start" x="454.7251" y="-15.4" font-family="sans-serif" font-size="14.00" fill="#000000"> &#160;Module</text>
<polygon fill="#80b1d3" stroke="transparent" points="517,-10 517,-30 537,-30 537,-10 517,-10"/>
<text text-anchor="start" x="540.7812" y="-15.4" font-family="sans-serif" font-size="14.00" fill="#000000"> &#160;Bootstrap</text>
<polygon fill="#fdb462" stroke="transparent" points="614,-10 614,-30 634,-30 634,-10 614,-10"/>
<text text-anchor="start" x="637.6732" y="-15.4" font-family="sans-serif" font-size="14.00" fill="#000000"> &#160;Providers</text>
<polygon fill="#fb8072" stroke="transparent" points="710,-10 710,-30 730,-30 730,-10 710,-10"/>
<text text-anchor="start" x="733.7258" y="-15.4" font-family="sans-serif" font-size="14.00" fill="#000000"> &#160;Exports</text>
<g id="clust1" class="cluster">
<title>cluster_AppModule</title>
<polygon fill="none" stroke="#000000" stroke-dasharray="1,5" points="8,-70 8,-268 1096,-268 1096,-70 8,-70"/>
</g>
<g id="clust3" class="cluster">
<title>cluster_AppModule_imports</title>
<polygon fill="none" stroke="#000000" points="16,-78 16,-130 1088,-130 1088,-78 16,-78"/>
</g>
<g id="clust4" class="cluster">
<title>cluster_AppModule_exports</title>
<polygon fill="none" stroke="#000000" points="423,-208 423,-260 617,-260 617,-208 423,-208"/>
</g>
<!-- AdminModule -->
<g id="node1" class="node">
<title>AdminModule</title>
<polygon fill="#8dd3c7" stroke="#000000" points="1080.4386,-122 1077.4386,-126 1056.4386,-126 1053.4386,-122 981.5614,-122 981.5614,-86 1080.4386,-86 1080.4386,-122"/>
<text text-anchor="middle" x="1031" y="-99.8" font-family="Times,serif" font-size="14.00" fill="#000000">AdminModule</text>
</g>
<!-- AppModule -->
<g id="node10" class="node">
<title>AppModule</title>
<polygon fill="#8dd3c7" stroke="#000000" points="571.6571,-187 568.6571,-191 547.6571,-191 544.6571,-187 488.3429,-187 488.3429,-151 571.6571,-151 571.6571,-187"/>
<text text-anchor="middle" x="530" y="-164.8" font-family="Times,serif" font-size="14.00" fill="#000000">AppModule</text>
</g>
<!-- AdminModule&#45;&gt;AppModule -->
<g id="edge1" class="edge">
<title>AdminModule&#45;&gt;AppModule</title>
<path fill="none" stroke="#000000" d="M1031,-122.0109C1031,-144.4852 1031,-180 1031,-180 1031,-180 581.8533,-180 581.8533,-180"/>
<polygon fill="#000000" stroke="#000000" points="581.8533,-176.5001 571.8533,-180 581.8532,-183.5001 581.8533,-176.5001"/>
</g>
<!-- ApplicationsModule -->
<g id="node2" class="node">
<title>ApplicationsModule</title>
<polygon fill="#8dd3c7" stroke="#000000" points="963.5926,-122 960.5926,-126 939.5926,-126 936.5926,-122 832.4074,-122 832.4074,-86 963.5926,-86 963.5926,-122"/>
<text text-anchor="middle" x="898" y="-99.8" font-family="Times,serif" font-size="14.00" fill="#000000">ApplicationsModule</text>
</g>
<!-- ApplicationsModule&#45;&gt;AppModule -->
<g id="edge2" class="edge">
<title>ApplicationsModule&#45;&gt;AppModule</title>
<path fill="none" stroke="#000000" d="M898,-122.1289C898,-142.5724 898,-173 898,-173 898,-173 581.856,-173 581.856,-173"/>
<polygon fill="#000000" stroke="#000000" points="581.856,-169.5001 571.856,-173 581.856,-176.5001 581.856,-169.5001"/>
</g>
<!-- AuthModule -->
<g id="node3" class="node">
<title>AuthModule</title>
<polygon fill="#8dd3c7" stroke="#000000" points="814.5482,-122 811.5482,-126 790.5482,-126 787.5482,-122 727.4518,-122 727.4518,-86 814.5482,-86 814.5482,-122"/>
<text text-anchor="middle" x="771" y="-99.8" font-family="Times,serif" font-size="14.00" fill="#000000">AuthModule</text>
</g>
<!-- AuthModule&#45;&gt;AppModule -->
<g id="edge3" class="edge">
<title>AuthModule&#45;&gt;AppModule</title>
<path fill="none" stroke="#000000" d="M771,-122.2667C771,-140.5552 771,-166 771,-166 771,-166 581.7039,-166 581.7039,-166"/>
<polygon fill="#000000" stroke="#000000" points="581.7039,-162.5001 571.7039,-166 581.7038,-169.5001 581.7039,-162.5001"/>
</g>
<!-- BullBoardModule -->
<g id="node4" class="node">
<title>BullBoardModule</title>
<polygon fill="#8dd3c7" stroke="#000000" points="708.8795,-122 705.8795,-126 684.8795,-126 681.8795,-122 591.1205,-122 591.1205,-86 708.8795,-86 708.8795,-122"/>
<text text-anchor="middle" x="650" y="-99.8" font-family="Times,serif" font-size="14.00" fill="#000000">BullBoardModule</text>
</g>
<!-- BullBoardModule&#45;&gt;AppModule -->
<g id="edge4" class="edge">
<title>BullBoardModule&#45;&gt;AppModule</title>
<path fill="none" stroke="#000000" d="M600.0121,-122.0091C600.0121,-138.0494 600.0121,-159 600.0121,-159 600.0121,-159 581.9389,-159 581.9389,-159"/>
<polygon fill="#000000" stroke="#000000" points="581.9389,-155.5001 571.9389,-159 581.9389,-162.5001 581.9389,-155.5001"/>
</g>
<!-- FilesModule -->
<g id="node5" class="node">
<title>FilesModule</title>
<polygon fill="#8dd3c7" stroke="#000000" points="573.2731,-122 570.2731,-126 549.2731,-126 546.2731,-122 486.7269,-122 486.7269,-86 573.2731,-86 573.2731,-122"/>
<text text-anchor="middle" x="530" y="-99.8" font-family="Times,serif" font-size="14.00" fill="#000000">FilesModule</text>
</g>
<!-- FilesModule&#45;&gt;AppModule -->
<g id="edge5" class="edge">
<title>FilesModule&#45;&gt;AppModule</title>
<path fill="none" stroke="#000000" d="M530,-122.1061C530,-122.1061 530,-140.991 530,-140.991"/>
<polygon fill="#000000" stroke="#000000" points="526.5001,-140.9909 530,-150.991 533.5001,-140.991 526.5001,-140.9909"/>
</g>
<!-- HealthModule -->
<g id="node6" class="node">
<title>HealthModule</title>
<polygon fill="#8dd3c7" stroke="#000000" points="468.3669,-122 465.3669,-126 444.3669,-126 441.3669,-122 371.6331,-122 371.6331,-86 468.3669,-86 468.3669,-122"/>
<text text-anchor="middle" x="420" y="-99.8" font-family="Times,serif" font-size="14.00" fill="#000000">HealthModule</text>
</g>
<!-- HealthModule&#45;&gt;AppModule -->
<g id="edge6" class="edge">
<title>HealthModule&#45;&gt;AppModule</title>
<path fill="none" stroke="#000000" d="M449.6254,-122.0091C449.6254,-138.0494 449.6254,-159 449.6254,-159 449.6254,-159 477.9295,-159 477.9295,-159"/>
<polygon fill="#000000" stroke="#000000" points="477.9295,-162.5001 487.9295,-159 477.9295,-155.5001 477.9295,-162.5001"/>
</g>
<!-- MailerModule -->
<g id="node7" class="node">
<title>MailerModule</title>
<polygon fill="#8dd3c7" stroke="#000000" points="353.3655,-122 350.3655,-126 329.3655,-126 326.3655,-122 256.6345,-122 256.6345,-86 353.3655,-86 353.3655,-122"/>
<text text-anchor="middle" x="305" y="-99.8" font-family="Times,serif" font-size="14.00" fill="#000000">MailerModule</text>
</g>
<!-- MailerModule&#45;&gt;AppModule -->
<g id="edge7" class="edge">
<title>MailerModule&#45;&gt;AppModule</title>
<path fill="none" stroke="#000000" d="M305,-122.2667C305,-140.5552 305,-166 305,-166 305,-166 478.2065,-166 478.2065,-166"/>
<polygon fill="#000000" stroke="#000000" points="478.2066,-169.5001 488.2065,-166 478.2065,-162.5001 478.2066,-169.5001"/>
</g>
<!-- SettingsModule -->
<g id="node8" class="node">
<title>SettingsModule</title>
<polygon fill="#8dd3c7" stroke="#000000" points="238.1639,-122 235.1639,-126 214.1639,-126 211.1639,-122 133.8361,-122 133.8361,-86 238.1639,-86 238.1639,-122"/>
<text text-anchor="middle" x="186" y="-99.8" font-family="Times,serif" font-size="14.00" fill="#000000">SettingsModule</text>
</g>
<!-- SettingsModule&#45;&gt;AppModule -->
<g id="edge8" class="edge">
<title>SettingsModule&#45;&gt;AppModule</title>
<path fill="none" stroke="#000000" d="M186,-122.1289C186,-142.5724 186,-173 186,-173 186,-173 478.1628,-173 478.1628,-173"/>
<polygon fill="#000000" stroke="#000000" points="478.1628,-176.5001 488.1628,-173 478.1627,-169.5001 478.1628,-176.5001"/>
</g>
<!-- UsersModule -->
<g id="node9" class="node">
<title>UsersModule</title>
<polygon fill="#8dd3c7" stroke="#000000" points="115.9218,-122 112.9218,-126 91.9218,-126 88.9218,-122 24.0782,-122 24.0782,-86 115.9218,-86 115.9218,-122"/>
<text text-anchor="middle" x="70" y="-99.8" font-family="Times,serif" font-size="14.00" fill="#000000">UsersModule</text>
</g>
<!-- UsersModule&#45;&gt;AppModule -->
<g id="edge9" class="edge">
<title>UsersModule&#45;&gt;AppModule</title>
<path fill="none" stroke="#000000" d="M70,-122.0109C70,-144.4852 70,-180 70,-180 70,-180 477.9586,-180 477.9586,-180"/>
<polygon fill="#000000" stroke="#000000" points="477.9587,-183.5001 487.9586,-180 477.9586,-176.5001 477.9587,-183.5001"/>
</g>
<!-- Logger  -->
<g id="node11" class="node">
<title>Logger </title>
<polygon fill="#fb8072" stroke="#000000" points="608.9278,-252 549.0722,-252 549.0722,-216 608.9278,-216 608.9278,-252"/>
<text text-anchor="middle" x="579" y="-229.8" font-family="Times,serif" font-size="14.00" fill="#000000">Logger </text>
</g>
<!-- AppModule&#45;&gt;Logger  -->
<g id="edge10" class="edge">
<title>AppModule&#45;&gt;Logger </title>
<path fill="none" stroke="#000000" stroke-dasharray="5,2" d="M560.4322,-187.1061C560.4322,-187.1061 560.4322,-205.991 560.4322,-205.991"/>
<polygon fill="#000000" stroke="#000000" points="556.9322,-205.9909 560.4322,-215.991 563.9322,-205.991 556.9322,-205.9909"/>
</g>
<!-- MailerModule  -->
<g id="node12" class="node">
<title>MailerModule </title>
<polygon fill="#fb8072" stroke="#000000" points="531.3661,-252 430.6339,-252 430.6339,-216 531.3661,-216 531.3661,-252"/>
<text text-anchor="middle" x="481" y="-229.8" font-family="Times,serif" font-size="14.00" fill="#000000">MailerModule </text>
</g>
<!-- AppModule&#45;&gt;MailerModule  -->
<g id="edge11" class="edge">
<title>AppModule&#45;&gt;MailerModule </title>
<path fill="none" stroke="#000000" stroke-dasharray="5,2" d="M509.6773,-187.1061C509.6773,-187.1061 509.6773,-205.991 509.6773,-205.991"/>
<polygon fill="#000000" stroke="#000000" points="506.1773,-205.9909 509.6773,-215.991 513.1773,-205.991 506.1773,-205.9909"/>
</g>
</g>
</svg>
