<?xml version="1.0" encoding="UTF-8" standalone="no"?>
<!DOCTYPE svg PUBLIC "-//W3C//DTD SVG 1.1//EN"
 "http://www.w3.org/Graphics/SVG/1.1/DTD/svg11.dtd">
<!-- Generated by graphviz version 2.40.1 (20161225.0304)
 -->
<!-- Title: dependencies Pages: 1 -->
<svg width="963pt" height="284pt"
 viewBox="0.00 0.00 963.00 284.00" xmlns="http://www.w3.org/2000/svg" xmlns:xlink="http://www.w3.org/1999/xlink">
<g id="graph0" class="graph" transform="scale(1 1) rotate(0) translate(4 280)">
<title>dependencies</title>
<polygon fill="#ffffff" stroke="transparent" points="-4,4 -4,-280 959,-280 959,4 -4,4"/>
<text text-anchor="start" x="456.5091" y="-42.4" font-family="sans-serif" font-weight="bold" font-size="14.00" fill="#000000">Legend</text>
<polygon fill="#ffffb3" stroke="transparent" points="243.5,-10 243.5,-30 263.5,-30 263.5,-10 243.5,-10"/>
<text text-anchor="start" x="267.129" y="-15.4" font-family="sans-serif" font-size="14.00" fill="#000000"> &#160;Declarations</text>
<polygon fill="#8dd3c7" stroke="transparent" points="356.5,-10 356.5,-30 376.5,-30 376.5,-10 356.5,-10"/>
<text text-anchor="start" x="380.2251" y="-15.4" font-family="sans-serif" font-size="14.00" fill="#000000"> &#160;Module</text>
<polygon fill="#80b1d3" stroke="transparent" points="442.5,-10 442.5,-30 462.5,-30 462.5,-10 442.5,-10"/>
<text text-anchor="start" x="466.2812" y="-15.4" font-family="sans-serif" font-size="14.00" fill="#000000"> &#160;Bootstrap</text>
<polygon fill="#fdb462" stroke="transparent" points="539.5,-10 539.5,-30 559.5,-30 559.5,-10 539.5,-10"/>
<text text-anchor="start" x="563.1732" y="-15.4" font-family="sans-serif" font-size="14.00" fill="#000000"> &#160;Providers</text>
<polygon fill="#fb8072" stroke="transparent" points="635.5,-10 635.5,-30 655.5,-30 655.5,-10 635.5,-10"/>
<text text-anchor="start" x="659.2258" y="-15.4" font-family="sans-serif" font-size="14.00" fill="#000000"> &#160;Exports</text>
<g id="clust1" class="cluster">
<title>cluster_AppModule</title>
<polygon fill="none" stroke="#000000" stroke-dasharray="1,5" points="8,-70 8,-268 947,-268 947,-70 8,-70"/>
</g>
<g id="clust3" class="cluster">
<title>cluster_AppModule_imports</title>
<polygon fill="none" stroke="#000000" points="16,-78 16,-130 939,-130 939,-78 16,-78"/>
</g>
<g id="clust4" class="cluster">
<title>cluster_AppModule_exports</title>
<polygon fill="none" stroke="#000000" points="368,-208 368,-260 562,-260 562,-208 368,-208"/>
</g>
<!-- AdminModule -->
<g id="node1" class="node">
<title>AdminModule</title>
<polygon fill="#8dd3c7" stroke="#000000" points="931.4386,-122 928.4386,-126 907.4386,-126 904.4386,-122 832.5614,-122 832.5614,-86 931.4386,-86 931.4386,-122"/>
<text text-anchor="middle" x="882" y="-99.8" font-family="Times,serif" font-size="14.00" fill="#000000">AdminModule</text>
</g>
<!-- AppModule -->
<g id="node9" class="node">
<title>AppModule</title>
<polygon fill="#8dd3c7" stroke="#000000" points="516.6571,-187 513.6571,-191 492.6571,-191 489.6571,-187 433.3429,-187 433.3429,-151 516.6571,-151 516.6571,-187"/>
<text text-anchor="middle" x="475" y="-164.8" font-family="Times,serif" font-size="14.00" fill="#000000">AppModule</text>
</g>
<!-- AdminModule&#45;&gt;AppModule -->
<g id="edge1" class="edge">
<title>AdminModule&#45;&gt;AppModule</title>
<path fill="none" stroke="#000000" d="M882,-122.2921C882,-144.2057 882,-178 882,-178 882,-178 527.0232,-178 527.0232,-178"/>
<polygon fill="#000000" stroke="#000000" points="527.0232,-174.5001 517.0232,-178 527.0232,-181.5001 527.0232,-174.5001"/>
</g>
<!-- AuthModule -->
<g id="node2" class="node">
<title>AuthModule</title>
<polygon fill="#8dd3c7" stroke="#000000" points="814.5482,-122 811.5482,-126 790.5482,-126 787.5482,-122 727.4518,-122 727.4518,-86 814.5482,-86 814.5482,-122"/>
<text text-anchor="middle" x="771" y="-99.8" font-family="Times,serif" font-size="14.00" fill="#000000">AuthModule</text>
</g>
<!-- AuthModule&#45;&gt;AppModule -->
<g id="edge2" class="edge">
<title>AuthModule&#45;&gt;AppModule</title>
<path fill="none" stroke="#000000" d="M771,-122.1061C771,-141.3391 771,-169 771,-169 771,-169 526.7818,-169 526.7818,-169"/>
<polygon fill="#000000" stroke="#000000" points="526.7818,-165.5001 516.7818,-169 526.7817,-172.5001 526.7818,-165.5001"/>
</g>
<!-- BullBoardModule -->
<g id="node3" class="node">
<title>BullBoardModule</title>
<polygon fill="#8dd3c7" stroke="#000000" points="708.8795,-122 705.8795,-126 684.8795,-126 681.8795,-122 591.1205,-122 591.1205,-86 708.8795,-86 708.8795,-122"/>
<text text-anchor="middle" x="650" y="-99.8" font-family="Times,serif" font-size="14.00" fill="#000000">BullBoardModule</text>
</g>
<!-- BullBoardModule&#45;&gt;AppModule -->
<g id="edge3" class="edge">
<title>BullBoardModule&#45;&gt;AppModule</title>
<path fill="none" stroke="#000000" d="M650,-122.027C650,-138.3976 650,-160 650,-160 650,-160 526.9169,-160 526.9169,-160"/>
<polygon fill="#000000" stroke="#000000" points="526.9169,-156.5001 516.9169,-160 526.9168,-163.5001 526.9169,-156.5001"/>
</g>
<!-- FilesModule -->
<g id="node4" class="node">
<title>FilesModule</title>
<polygon fill="#8dd3c7" stroke="#000000" points="573.2731,-122 570.2731,-126 549.2731,-126 546.2731,-122 486.7269,-122 486.7269,-86 573.2731,-86 573.2731,-122"/>
<text text-anchor="middle" x="530" y="-99.8" font-family="Times,serif" font-size="14.00" fill="#000000">FilesModule</text>
</g>
<!-- FilesModule&#45;&gt;AppModule -->
<g id="edge4" class="edge">
<title>FilesModule&#45;&gt;AppModule</title>
<path fill="none" stroke="#000000" d="M501.7209,-122.1061C501.7209,-122.1061 501.7209,-140.991 501.7209,-140.991"/>
<polygon fill="#000000" stroke="#000000" points="498.221,-140.9909 501.7209,-150.991 505.221,-140.991 498.221,-140.9909"/>
</g>
<!-- HealthModule -->
<g id="node5" class="node">
<title>HealthModule</title>
<polygon fill="#8dd3c7" stroke="#000000" points="468.3669,-122 465.3669,-126 444.3669,-126 441.3669,-122 371.6331,-122 371.6331,-86 468.3669,-86 468.3669,-122"/>
<text text-anchor="middle" x="420" y="-99.8" font-family="Times,serif" font-size="14.00" fill="#000000">HealthModule</text>
</g>
<!-- HealthModule&#45;&gt;AppModule -->
<g id="edge5" class="edge">
<title>HealthModule&#45;&gt;AppModule</title>
<path fill="none" stroke="#000000" d="M450.8026,-122.1061C450.8026,-122.1061 450.8026,-140.991 450.8026,-140.991"/>
<polygon fill="#000000" stroke="#000000" points="447.3027,-140.9909 450.8026,-150.991 454.3027,-140.991 447.3027,-140.9909"/>
</g>
<!-- MailerModule -->
<g id="node6" class="node">
<title>MailerModule</title>
<polygon fill="#8dd3c7" stroke="#000000" points="353.3655,-122 350.3655,-126 329.3655,-126 326.3655,-122 256.6345,-122 256.6345,-86 353.3655,-86 353.3655,-122"/>
<text text-anchor="middle" x="305" y="-99.8" font-family="Times,serif" font-size="14.00" fill="#000000">MailerModule</text>
</g>
<!-- MailerModule&#45;&gt;AppModule -->
<g id="edge6" class="edge">
<title>MailerModule&#45;&gt;AppModule</title>
<path fill="none" stroke="#000000" d="M305,-122.027C305,-138.3976 305,-160 305,-160 305,-160 422.9775,-160 422.9775,-160"/>
<polygon fill="#000000" stroke="#000000" points="422.9776,-163.5001 432.9775,-160 422.9775,-156.5001 422.9776,-163.5001"/>
</g>
<!-- SettingsModule -->
<g id="node7" class="node">
<title>SettingsModule</title>
<polygon fill="#8dd3c7" stroke="#000000" points="238.1639,-122 235.1639,-126 214.1639,-126 211.1639,-122 133.8361,-122 133.8361,-86 238.1639,-86 238.1639,-122"/>
<text text-anchor="middle" x="186" y="-99.8" font-family="Times,serif" font-size="14.00" fill="#000000">SettingsModule</text>
</g>
<!-- SettingsModule&#45;&gt;AppModule -->
<g id="edge7" class="edge">
<title>SettingsModule&#45;&gt;AppModule</title>
<path fill="none" stroke="#000000" d="M186,-122.1061C186,-141.3391 186,-169 186,-169 186,-169 423.2856,-169 423.2856,-169"/>
<polygon fill="#000000" stroke="#000000" points="423.2856,-172.5001 433.2856,-169 423.2855,-165.5001 423.2856,-172.5001"/>
</g>
<!-- UsersModule -->
<g id="node8" class="node">
<title>UsersModule</title>
<polygon fill="#8dd3c7" stroke="#000000" points="115.9218,-122 112.9218,-126 91.9218,-126 88.9218,-122 24.0782,-122 24.0782,-86 115.9218,-86 115.9218,-122"/>
<text text-anchor="middle" x="70" y="-99.8" font-family="Times,serif" font-size="14.00" fill="#000000">UsersModule</text>
</g>
<!-- UsersModule&#45;&gt;AppModule -->
<g id="edge8" class="edge">
<title>UsersModule&#45;&gt;AppModule</title>
<path fill="none" stroke="#000000" d="M70,-122.2921C70,-144.2057 70,-178 70,-178 70,-178 423.1833,-178 423.1833,-178"/>
<polygon fill="#000000" stroke="#000000" points="423.1833,-181.5001 433.1833,-178 423.1833,-174.5001 423.1833,-181.5001"/>
</g>
<!-- Logger  -->
<g id="node10" class="node">
<title>Logger </title>
<polygon fill="#fb8072" stroke="#000000" points="553.9278,-252 494.0722,-252 494.0722,-216 553.9278,-216 553.9278,-252"/>
<text text-anchor="middle" x="524" y="-229.8" font-family="Times,serif" font-size="14.00" fill="#000000">Logger </text>
</g>
<!-- AppModule&#45;&gt;Logger  -->
<g id="edge9" class="edge">
<title>AppModule&#45;&gt;Logger </title>
<path fill="none" stroke="#000000" stroke-dasharray="5,2" d="M505.4322,-187.1061C505.4322,-187.1061 505.4322,-205.991 505.4322,-205.991"/>
<polygon fill="#000000" stroke="#000000" points="501.9322,-205.9909 505.4322,-215.991 508.9322,-205.991 501.9322,-205.9909"/>
</g>
<!-- MailerModule  -->
<g id="node11" class="node">
<title>MailerModule </title>
<polygon fill="#fb8072" stroke="#000000" points="476.3661,-252 375.6339,-252 375.6339,-216 476.3661,-216 476.3661,-252"/>
<text text-anchor="middle" x="426" y="-229.8" font-family="Times,serif" font-size="14.00" fill="#000000">MailerModule </text>
</g>
<!-- AppModule&#45;&gt;MailerModule  -->
<g id="edge10" class="edge">
<title>AppModule&#45;&gt;MailerModule </title>
<path fill="none" stroke="#000000" stroke-dasharray="5,2" d="M454.6773,-187.1061C454.6773,-187.1061 454.6773,-205.991 454.6773,-205.991"/>
<polygon fill="#000000" stroke="#000000" points="451.1773,-205.9909 454.6773,-215.991 458.1773,-205.991 451.1773,-205.9909"/>
</g>
</g>
</svg>
