<?xml version="1.0" encoding="UTF-8" standalone="no"?>
<!DOCTYPE svg PUBLIC "-//W3C//DTD SVG 1.1//EN"
 "http://www.w3.org/Graphics/SVG/1.1/DTD/svg11.dtd">
<!-- Generated by graphviz version 2.40.1 (20161225.0304)
 -->
<!-- Title: dependencies Pages: 1 -->
<svg width="1115pt" height="284pt"
 viewBox="0.00 0.00 1115.00 284.00" xmlns="http://www.w3.org/2000/svg" xmlns:xlink="http://www.w3.org/1999/xlink">
<g id="graph0" class="graph" transform="scale(1 1) rotate(0) translate(4 280)">
<title>dependencies</title>
<polygon fill="#ffffff" stroke="transparent" points="-4,4 -4,-280 1111,-280 1111,4 -4,4"/>
<text text-anchor="start" x="532.5091" y="-42.4" font-family="sans-serif" font-weight="bold" font-size="14.00" fill="#000000">Legend</text>
<polygon fill="#ffffb3" stroke="transparent" points="319.5,-10 319.5,-30 339.5,-30 339.5,-10 319.5,-10"/>
<text text-anchor="start" x="343.129" y="-15.4" font-family="sans-serif" font-size="14.00" fill="#000000"> &#160;Declarations</text>
<polygon fill="#8dd3c7" stroke="transparent" points="432.5,-10 432.5,-30 452.5,-30 452.5,-10 432.5,-10"/>
<text text-anchor="start" x="456.2251" y="-15.4" font-family="sans-serif" font-size="14.00" fill="#000000"> &#160;Module</text>
<polygon fill="#80b1d3" stroke="transparent" points="518.5,-10 518.5,-30 538.5,-30 538.5,-10 518.5,-10"/>
<text text-anchor="start" x="542.2812" y="-15.4" font-family="sans-serif" font-size="14.00" fill="#000000"> &#160;Bootstrap</text>
<polygon fill="#fdb462" stroke="transparent" points="615.5,-10 615.5,-30 635.5,-30 635.5,-10 615.5,-10"/>
<text text-anchor="start" x="639.1732" y="-15.4" font-family="sans-serif" font-size="14.00" fill="#000000"> &#160;Providers</text>
<polygon fill="#fb8072" stroke="transparent" points="711.5,-10 711.5,-30 731.5,-30 731.5,-10 711.5,-10"/>
<text text-anchor="start" x="735.2258" y="-15.4" font-family="sans-serif" font-size="14.00" fill="#000000"> &#160;Exports</text>
<g id="clust1" class="cluster">
<title>cluster_AppModule</title>
<polygon fill="none" stroke="#000000" stroke-dasharray="1,5" points="8,-70 8,-268 1099,-268 1099,-70 8,-70"/>
</g>
<g id="clust3" class="cluster">
<title>cluster_AppModule_imports</title>
<polygon fill="none" stroke="#000000" points="16,-78 16,-130 1091,-130 1091,-78 16,-78"/>
</g>
<g id="clust4" class="cluster">
<title>cluster_AppModule_exports</title>
<polygon fill="none" stroke="#000000" points="313,-208 313,-260 772,-260 772,-208 313,-208"/>
</g>
<!-- AdminModule -->
<g id="node1" class="node">
<title>AdminModule</title>
<polygon fill="#8dd3c7" stroke="#000000" points="1083.4386,-122 1080.4386,-126 1059.4386,-126 1056.4386,-122 984.5614,-122 984.5614,-86 1083.4386,-86 1083.4386,-122"/>
<text text-anchor="middle" x="1034" y="-99.8" font-family="Times,serif" font-size="14.00" fill="#000000">AdminModule</text>
</g>
<!-- AppModule -->
<g id="node10" class="node">
<title>AppModule</title>
<polygon fill="#8dd3c7" stroke="#000000" points="574.6571,-187 571.6571,-191 550.6571,-191 547.6571,-187 491.3429,-187 491.3429,-151 574.6571,-151 574.6571,-187"/>
<text text-anchor="middle" x="533" y="-164.8" font-family="Times,serif" font-size="14.00" fill="#000000">AppModule</text>
</g>
<!-- AdminModule&#45;&gt;AppModule -->
<g id="edge1" class="edge">
<title>AdminModule&#45;&gt;AppModule</title>
<path fill="none" stroke="#000000" d="M1034,-122.2843C1034,-143.3211 1034,-175 1034,-175 1034,-175 584.8533,-175 584.8533,-175"/>
<polygon fill="#000000" stroke="#000000" points="584.8533,-171.5001 574.8533,-175 584.8532,-178.5001 584.8533,-171.5001"/>
</g>
<!-- ApplicationsModule -->
<g id="node2" class="node">
<title>ApplicationsModule</title>
<polygon fill="#8dd3c7" stroke="#000000" points="966.5926,-122 963.5926,-126 942.5926,-126 939.5926,-122 835.4074,-122 835.4074,-86 966.5926,-86 966.5926,-122"/>
<text text-anchor="middle" x="901" y="-99.8" font-family="Times,serif" font-size="14.00" fill="#000000">ApplicationsModule</text>
</g>
<!-- ApplicationsModule&#45;&gt;AppModule -->
<g id="edge2" class="edge">
<title>ApplicationsModule&#45;&gt;AppModule</title>
<path fill="none" stroke="#000000" d="M901,-122.1061C901,-141.3391 901,-169 901,-169 901,-169 584.856,-169 584.856,-169"/>
<polygon fill="#000000" stroke="#000000" points="584.856,-165.5001 574.856,-169 584.856,-172.5001 584.856,-165.5001"/>
</g>
<!-- AuthModule -->
<g id="node3" class="node">
<title>AuthModule</title>
<polygon fill="#8dd3c7" stroke="#000000" points="817.5482,-122 814.5482,-126 793.5482,-126 790.5482,-122 730.4518,-122 730.4518,-86 817.5482,-86 817.5482,-122"/>
<text text-anchor="middle" x="774" y="-99.8" font-family="Times,serif" font-size="14.00" fill="#000000">AuthModule</text>
</g>
<!-- AuthModule&#45;&gt;AppModule -->
<g id="edge3" class="edge">
<title>AuthModule&#45;&gt;AppModule</title>
<path fill="none" stroke="#000000" d="M747.2614,-122.0225C747.2614,-139.3734 747.2614,-163 747.2614,-163 747.2614,-163 584.8204,-163 584.8204,-163"/>
<polygon fill="#000000" stroke="#000000" points="584.8204,-159.5001 574.8204,-163 584.8204,-166.5001 584.8204,-159.5001"/>
</g>
<!-- BullBoardModule -->
<g id="node4" class="node">
<title>BullBoardModule</title>
<polygon fill="#8dd3c7" stroke="#000000" points="711.8795,-122 708.8795,-126 687.8795,-126 684.8795,-122 594.1205,-122 594.1205,-86 711.8795,-86 711.8795,-122"/>
<text text-anchor="middle" x="653" y="-99.8" font-family="Times,serif" font-size="14.00" fill="#000000">BullBoardModule</text>
</g>
<!-- BullBoardModule&#45;&gt;AppModule -->
<g id="edge4" class="edge">
<title>BullBoardModule&#45;&gt;AppModule</title>
<path fill="none" stroke="#000000" d="M603.0121,-122.2396C603.0121,-137.5706 603.0121,-157 603.0121,-157 603.0121,-157 584.9389,-157 584.9389,-157"/>
<polygon fill="#000000" stroke="#000000" points="584.9389,-153.5001 574.9389,-157 584.9389,-160.5001 584.9389,-153.5001"/>
</g>
<!-- FilesModule -->
<g id="node5" class="node">
<title>FilesModule</title>
<polygon fill="#8dd3c7" stroke="#000000" points="576.2731,-122 573.2731,-126 552.2731,-126 549.2731,-122 489.7269,-122 489.7269,-86 576.2731,-86 576.2731,-122"/>
<text text-anchor="middle" x="533" y="-99.8" font-family="Times,serif" font-size="14.00" fill="#000000">FilesModule</text>
</g>
<!-- FilesModule&#45;&gt;AppModule -->
<g id="edge5" class="edge">
<title>FilesModule&#45;&gt;AppModule</title>
<path fill="none" stroke="#000000" d="M533,-122.1061C533,-122.1061 533,-140.991 533,-140.991"/>
<polygon fill="#000000" stroke="#000000" points="529.5001,-140.9909 533,-150.991 536.5001,-140.991 529.5001,-140.9909"/>
</g>
<!-- HealthModule -->
<g id="node6" class="node">
<title>HealthModule</title>
<polygon fill="#8dd3c7" stroke="#000000" points="471.3669,-122 468.3669,-126 447.3669,-126 444.3669,-122 374.6331,-122 374.6331,-86 471.3669,-86 471.3669,-122"/>
<text text-anchor="middle" x="423" y="-99.8" font-family="Times,serif" font-size="14.00" fill="#000000">HealthModule</text>
</g>
<!-- HealthModule&#45;&gt;AppModule -->
<g id="edge6" class="edge">
<title>HealthModule&#45;&gt;AppModule</title>
<path fill="none" stroke="#000000" d="M452.6254,-122.2396C452.6254,-137.5706 452.6254,-157 452.6254,-157 452.6254,-157 480.9295,-157 480.9295,-157"/>
<polygon fill="#000000" stroke="#000000" points="480.9295,-160.5001 490.9295,-157 480.9295,-153.5001 480.9295,-160.5001"/>
</g>
<!-- MailerModule -->
<g id="node7" class="node">
<title>MailerModule</title>
<polygon fill="#8dd3c7" stroke="#000000" points="356.3655,-122 353.3655,-126 332.3655,-126 329.3655,-122 259.6345,-122 259.6345,-86 356.3655,-86 356.3655,-122"/>
<text text-anchor="middle" x="308" y="-99.8" font-family="Times,serif" font-size="14.00" fill="#000000">MailerModule</text>
</g>
<!-- MailerModule&#45;&gt;AppModule -->
<g id="edge7" class="edge">
<title>MailerModule&#45;&gt;AppModule</title>
<path fill="none" stroke="#000000" d="M338.4862,-122.0225C338.4862,-139.3734 338.4862,-163 338.4862,-163 338.4862,-163 481.2719,-163 481.2719,-163"/>
<polygon fill="#000000" stroke="#000000" points="481.2719,-166.5001 491.2719,-163 481.2719,-159.5001 481.2719,-166.5001"/>
</g>
<!-- SessionsModule -->
<g id="node8" class="node">
<title>SessionsModule</title>
<polygon fill="#8dd3c7" stroke="#000000" points="241.7716,-122 238.7716,-126 217.7716,-126 214.7716,-122 134.2284,-122 134.2284,-86 241.7716,-86 241.7716,-122"/>
<text text-anchor="middle" x="188" y="-99.8" font-family="Times,serif" font-size="14.00" fill="#000000">SessionsModule</text>
</g>
<!-- SessionsModule&#45;&gt;AppModule -->
<g id="edge8" class="edge">
<title>SessionsModule&#45;&gt;AppModule</title>
<path fill="none" stroke="#000000" d="M188,-122.1061C188,-141.3391 188,-169 188,-169 188,-169 481.0411,-169 481.0411,-169"/>
<polygon fill="#000000" stroke="#000000" points="481.0412,-172.5001 491.0411,-169 481.0411,-165.5001 481.0412,-172.5001"/>
</g>
<!-- UsersModule -->
<g id="node9" class="node">
<title>UsersModule</title>
<polygon fill="#8dd3c7" stroke="#000000" points="115.9218,-122 112.9218,-126 91.9218,-126 88.9218,-122 24.0782,-122 24.0782,-86 115.9218,-86 115.9218,-122"/>
<text text-anchor="middle" x="70" y="-99.8" font-family="Times,serif" font-size="14.00" fill="#000000">UsersModule</text>
</g>
<!-- UsersModule&#45;&gt;AppModule -->
<g id="edge9" class="edge">
<title>UsersModule&#45;&gt;AppModule</title>
<path fill="none" stroke="#000000" d="M70,-122.2843C70,-143.3211 70,-175 70,-175 70,-175 481.0952,-175 481.0952,-175"/>
<polygon fill="#000000" stroke="#000000" points="481.0953,-178.5001 491.0952,-175 481.0952,-171.5001 481.0953,-178.5001"/>
</g>
<!-- ApplicationsModule  -->
<g id="node11" class="node">
<title>ApplicationsModule </title>
<polygon fill="#fb8072" stroke="#000000" points="764.0932,-252 629.9068,-252 629.9068,-216 764.0932,-216 764.0932,-252"/>
<text text-anchor="middle" x="697" y="-229.8" font-family="Times,serif" font-size="14.00" fill="#000000">ApplicationsModule </text>
</g>
<!-- AppModule&#45;&gt;ApplicationsModule  -->
<g id="edge10" class="edge">
<title>AppModule&#45;&gt;ApplicationsModule </title>
<path fill="none" stroke="#000000" stroke-dasharray="5,2" d="M574.7251,-181C615.2896,-181 670.8217,-181 670.8217,-181 670.8217,-181 670.8217,-205.7604 670.8217,-205.7604"/>
<polygon fill="#000000" stroke="#000000" points="667.3218,-205.7604 670.8217,-215.7604 674.3218,-205.7604 667.3218,-205.7604"/>
</g>
<!-- Logger  -->
<g id="node12" class="node">
<title>Logger </title>
<polygon fill="#fb8072" stroke="#000000" points="611.9278,-252 552.0722,-252 552.0722,-216 611.9278,-216 611.9278,-252"/>
<text text-anchor="middle" x="582" y="-229.8" font-family="Times,serif" font-size="14.00" fill="#000000">Logger </text>
</g>
<!-- AppModule&#45;&gt;Logger  -->
<g id="edge11" class="edge">
<title>AppModule&#45;&gt;Logger </title>
<path fill="none" stroke="#000000" stroke-dasharray="5,2" d="M563.4322,-187.1061C563.4322,-187.1061 563.4322,-205.991 563.4322,-205.991"/>
<polygon fill="#000000" stroke="#000000" points="559.9322,-205.9909 563.4322,-215.991 566.9322,-205.991 559.9322,-205.9909"/>
</g>
<!-- MailerModule  -->
<g id="node13" class="node">
<title>MailerModule </title>
<polygon fill="#fb8072" stroke="#000000" points="534.3661,-252 433.6339,-252 433.6339,-216 534.3661,-216 534.3661,-252"/>
<text text-anchor="middle" x="484" y="-229.8" font-family="Times,serif" font-size="14.00" fill="#000000">MailerModule </text>
</g>
<!-- AppModule&#45;&gt;MailerModule  -->
<g id="edge12" class="edge">
<title>AppModule&#45;&gt;MailerModule </title>
<path fill="none" stroke="#000000" stroke-dasharray="5,2" d="M512.6773,-187.1061C512.6773,-187.1061 512.6773,-205.991 512.6773,-205.991"/>
<polygon fill="#000000" stroke="#000000" points="509.1773,-205.9909 512.6773,-215.991 516.1773,-205.991 509.1773,-205.9909"/>
</g>
<!-- UsersModule  -->
<g id="node14" class="node">
<title>UsersModule </title>
<polygon fill="#fb8072" stroke="#000000" points="415.4208,-252 320.5792,-252 320.5792,-216 415.4208,-216 415.4208,-252"/>
<text text-anchor="middle" x="368" y="-229.8" font-family="Times,serif" font-size="14.00" fill="#000000">UsersModule </text>
</g>
<!-- AppModule&#45;&gt;UsersModule  -->
<g id="edge13" class="edge">
<title>AppModule&#45;&gt;UsersModule </title>
<path fill="none" stroke="#000000" stroke-dasharray="5,2" d="M491.225,-181C450.612,-181 395.0135,-181 395.0135,-181 395.0135,-181 395.0135,-205.7604 395.0135,-205.7604"/>
<polygon fill="#000000" stroke="#000000" points="391.5136,-205.7604 395.0135,-215.7604 398.5136,-205.7604 391.5136,-205.7604"/>
</g>
</g>
</svg>
