<?xml version="1.0" encoding="UTF-8" standalone="no"?>
<!DOCTYPE svg PUBLIC "-//W3C//DTD SVG 1.1//EN"
 "http://www.w3.org/Graphics/SVG/1.1/DTD/svg11.dtd">
<!-- Generated by graphviz version 2.40.1 (20161225.0304)
 -->
<!-- Title: dependencies Pages: 1 -->
<svg width="1234pt" height="284pt"
 viewBox="0.00 0.00 1234.00 284.00" xmlns="http://www.w3.org/2000/svg" xmlns:xlink="http://www.w3.org/1999/xlink">
<g id="graph0" class="graph" transform="scale(1 1) rotate(0) translate(4 280)">
<title>dependencies</title>
<polygon fill="#ffffff" stroke="transparent" points="-4,4 -4,-280 1230,-280 1230,4 -4,4"/>
<text text-anchor="start" x="592.0091" y="-42.4" font-family="sans-serif" font-weight="bold" font-size="14.00" fill="#000000">Legend</text>
<polygon fill="#ffffb3" stroke="transparent" points="379,-10 379,-30 399,-30 399,-10 379,-10"/>
<text text-anchor="start" x="402.629" y="-15.4" font-family="sans-serif" font-size="14.00" fill="#000000"> &#160;Declarations</text>
<polygon fill="#8dd3c7" stroke="transparent" points="492,-10 492,-30 512,-30 512,-10 492,-10"/>
<text text-anchor="start" x="515.7251" y="-15.4" font-family="sans-serif" font-size="14.00" fill="#000000"> &#160;Module</text>
<polygon fill="#80b1d3" stroke="transparent" points="578,-10 578,-30 598,-30 598,-10 578,-10"/>
<text text-anchor="start" x="601.7812" y="-15.4" font-family="sans-serif" font-size="14.00" fill="#000000"> &#160;Bootstrap</text>
<polygon fill="#fdb462" stroke="transparent" points="675,-10 675,-30 695,-30 695,-10 675,-10"/>
<text text-anchor="start" x="698.6732" y="-15.4" font-family="sans-serif" font-size="14.00" fill="#000000"> &#160;Providers</text>
<polygon fill="#fb8072" stroke="transparent" points="771,-10 771,-30 791,-30 791,-10 771,-10"/>
<text text-anchor="start" x="794.7258" y="-15.4" font-family="sans-serif" font-size="14.00" fill="#000000"> &#160;Exports</text>
<g id="clust1" class="cluster">
<title>cluster_AppModule</title>
<polygon fill="none" stroke="#000000" stroke-dasharray="1,5" points="8,-70 8,-268 1218,-268 1218,-70 8,-70"/>
</g>
<g id="clust3" class="cluster">
<title>cluster_AppModule_imports</title>
<polygon fill="none" stroke="#000000" points="16,-78 16,-130 1210,-130 1210,-78 16,-78"/>
</g>
<g id="clust4" class="cluster">
<title>cluster_AppModule_exports</title>
<polygon fill="none" stroke="#000000" points="376,-208 376,-260 835,-260 835,-208 376,-208"/>
</g>
<!-- AdminModule -->
<g id="node1" class="node">
<title>AdminModule</title>
<polygon fill="#8dd3c7" stroke="#000000" points="1202.4386,-122 1199.4386,-126 1178.4386,-126 1175.4386,-122 1103.5614,-122 1103.5614,-86 1202.4386,-86 1202.4386,-122"/>
<text text-anchor="middle" x="1153" y="-99.8" font-family="Times,serif" font-size="14.00" fill="#000000">AdminModule</text>
</g>
<!-- AppModule -->
<g id="node11" class="node">
<title>AppModule</title>
<polygon fill="#8dd3c7" stroke="#000000" points="637.6571,-187 634.6571,-191 613.6571,-191 610.6571,-187 554.3429,-187 554.3429,-151 637.6571,-151 637.6571,-187"/>
<text text-anchor="middle" x="596" y="-164.8" font-family="Times,serif" font-size="14.00" fill="#000000">AppModule</text>
</g>
<!-- AdminModule&#45;&gt;AppModule -->
<g id="edge1" class="edge">
<title>AdminModule&#45;&gt;AppModule</title>
<path fill="none" stroke="#000000" d="M1153,-122.2843C1153,-143.3211 1153,-175 1153,-175 1153,-175 647.8655,-175 647.8655,-175"/>
<polygon fill="#000000" stroke="#000000" points="647.8656,-171.5001 637.8655,-175 647.8655,-178.5001 647.8656,-171.5001"/>
</g>
<!-- ApplicationsModule -->
<g id="node2" class="node">
<title>ApplicationsModule</title>
<polygon fill="#8dd3c7" stroke="#000000" points="1085.5926,-122 1082.5926,-126 1061.5926,-126 1058.5926,-122 954.4074,-122 954.4074,-86 1085.5926,-86 1085.5926,-122"/>
<text text-anchor="middle" x="1020" y="-99.8" font-family="Times,serif" font-size="14.00" fill="#000000">ApplicationsModule</text>
</g>
<!-- ApplicationsModule&#45;&gt;AppModule -->
<g id="edge2" class="edge">
<title>ApplicationsModule&#45;&gt;AppModule</title>
<path fill="none" stroke="#000000" d="M1020,-122.1061C1020,-141.3391 1020,-169 1020,-169 1020,-169 647.8151,-169 647.8151,-169"/>
<polygon fill="#000000" stroke="#000000" points="647.8152,-165.5001 637.8151,-169 647.8151,-172.5001 647.8152,-165.5001"/>
</g>
<!-- AuthModule -->
<g id="node3" class="node">
<title>AuthModule</title>
<polygon fill="#8dd3c7" stroke="#000000" points="936.5482,-122 933.5482,-126 912.5482,-126 909.5482,-122 849.4518,-122 849.4518,-86 936.5482,-86 936.5482,-122"/>
<text text-anchor="middle" x="893" y="-99.8" font-family="Times,serif" font-size="14.00" fill="#000000">AuthModule</text>
</g>
<!-- AuthModule&#45;&gt;AppModule -->
<g id="edge3" class="edge">
<title>AuthModule&#45;&gt;AppModule</title>
<path fill="none" stroke="#000000" d="M893,-122.0225C893,-139.3734 893,-163 893,-163 893,-163 647.9229,-163 647.9229,-163"/>
<polygon fill="#000000" stroke="#000000" points="647.923,-159.5001 637.9229,-163 647.9229,-166.5001 647.923,-159.5001"/>
</g>
<!-- BullBoardModule -->
<g id="node4" class="node">
<title>BullBoardModule</title>
<polygon fill="#8dd3c7" stroke="#000000" points="830.8795,-122 827.8795,-126 806.8795,-126 803.8795,-122 713.1205,-122 713.1205,-86 830.8795,-86 830.8795,-122"/>
<text text-anchor="middle" x="772" y="-99.8" font-family="Times,serif" font-size="14.00" fill="#000000">BullBoardModule</text>
</g>
<!-- BullBoardModule&#45;&gt;AppModule -->
<g id="edge4" class="edge">
<title>BullBoardModule&#45;&gt;AppModule</title>
<path fill="none" stroke="#000000" d="M770.1783,-122.2396C770.1783,-137.5706 770.1783,-157 770.1783,-157 770.1783,-157 647.72,-157 647.72,-157"/>
<polygon fill="#000000" stroke="#000000" points="647.7201,-153.5001 637.72,-157 647.72,-160.5001 647.7201,-153.5001"/>
</g>
<!-- FilesModule -->
<g id="node5" class="node">
<title>FilesModule</title>
<polygon fill="#8dd3c7" stroke="#000000" points="695.2731,-122 692.2731,-126 671.2731,-126 668.2731,-122 608.7269,-122 608.7269,-86 695.2731,-86 695.2731,-122"/>
<text text-anchor="middle" x="652" y="-99.8" font-family="Times,serif" font-size="14.00" fill="#000000">FilesModule</text>
</g>
<!-- FilesModule&#45;&gt;AppModule -->
<g id="edge5" class="edge">
<title>FilesModule&#45;&gt;AppModule</title>
<path fill="none" stroke="#000000" d="M623.2209,-122.1061C623.2209,-122.1061 623.2209,-140.991 623.2209,-140.991"/>
<polygon fill="#000000" stroke="#000000" points="619.721,-140.9909 623.2209,-150.991 626.721,-140.991 619.721,-140.9909"/>
</g>
<!-- FoldersModule -->
<g id="node6" class="node">
<title>FoldersModule</title>
<polygon fill="#8dd3c7" stroke="#000000" points="590.5438,-122 587.5438,-126 566.5438,-126 563.5438,-122 489.4562,-122 489.4562,-86 590.5438,-86 590.5438,-122"/>
<text text-anchor="middle" x="540" y="-99.8" font-family="Times,serif" font-size="14.00" fill="#000000">FoldersModule</text>
</g>
<!-- FoldersModule&#45;&gt;AppModule -->
<g id="edge6" class="edge">
<title>FoldersModule&#45;&gt;AppModule</title>
<path fill="none" stroke="#000000" d="M572.4716,-122.1061C572.4716,-122.1061 572.4716,-140.991 572.4716,-140.991"/>
<polygon fill="#000000" stroke="#000000" points="568.9717,-140.9909 572.4716,-150.991 575.9717,-140.991 568.9717,-140.9909"/>
</g>
<!-- HealthModule -->
<g id="node7" class="node">
<title>HealthModule</title>
<polygon fill="#8dd3c7" stroke="#000000" points="471.3669,-122 468.3669,-126 447.3669,-126 444.3669,-122 374.6331,-122 374.6331,-86 471.3669,-86 471.3669,-122"/>
<text text-anchor="middle" x="423" y="-99.8" font-family="Times,serif" font-size="14.00" fill="#000000">HealthModule</text>
</g>
<!-- HealthModule&#45;&gt;AppModule -->
<g id="edge7" class="edge">
<title>HealthModule&#45;&gt;AppModule</title>
<path fill="none" stroke="#000000" d="M427.4865,-122.2396C427.4865,-137.5706 427.4865,-157 427.4865,-157 427.4865,-157 543.9116,-157 543.9116,-157"/>
<polygon fill="#000000" stroke="#000000" points="543.9117,-160.5001 553.9116,-157 543.9116,-153.5001 543.9117,-160.5001"/>
</g>
<!-- MailerModule -->
<g id="node8" class="node">
<title>MailerModule</title>
<polygon fill="#8dd3c7" stroke="#000000" points="356.3655,-122 353.3655,-126 332.3655,-126 329.3655,-122 259.6345,-122 259.6345,-86 356.3655,-86 356.3655,-122"/>
<text text-anchor="middle" x="308" y="-99.8" font-family="Times,serif" font-size="14.00" fill="#000000">MailerModule</text>
</g>
<!-- MailerModule&#45;&gt;AppModule -->
<g id="edge8" class="edge">
<title>MailerModule&#45;&gt;AppModule</title>
<path fill="none" stroke="#000000" d="M308,-122.0225C308,-139.3734 308,-163 308,-163 308,-163 544.1223,-163 544.1223,-163"/>
<polygon fill="#000000" stroke="#000000" points="544.1224,-166.5001 554.1223,-163 544.1223,-159.5001 544.1224,-166.5001"/>
</g>
<!-- SessionsModule -->
<g id="node9" class="node">
<title>SessionsModule</title>
<polygon fill="#8dd3c7" stroke="#000000" points="241.7716,-122 238.7716,-126 217.7716,-126 214.7716,-122 134.2284,-122 134.2284,-86 241.7716,-86 241.7716,-122"/>
<text text-anchor="middle" x="188" y="-99.8" font-family="Times,serif" font-size="14.00" fill="#000000">SessionsModule</text>
</g>
<!-- SessionsModule&#45;&gt;AppModule -->
<g id="edge9" class="edge">
<title>SessionsModule&#45;&gt;AppModule</title>
<path fill="none" stroke="#000000" d="M188,-122.1061C188,-141.3391 188,-169 188,-169 188,-169 544.2542,-169 544.2542,-169"/>
<polygon fill="#000000" stroke="#000000" points="544.2543,-172.5001 554.2542,-169 544.2542,-165.5001 544.2543,-172.5001"/>
</g>
<!-- UsersModule -->
<g id="node10" class="node">
<title>UsersModule</title>
<polygon fill="#8dd3c7" stroke="#000000" points="115.9218,-122 112.9218,-126 91.9218,-126 88.9218,-122 24.0782,-122 24.0782,-86 115.9218,-86 115.9218,-122"/>
<text text-anchor="middle" x="70" y="-99.8" font-family="Times,serif" font-size="14.00" fill="#000000">UsersModule</text>
</g>
<!-- UsersModule&#45;&gt;AppModule -->
<g id="edge10" class="edge">
<title>UsersModule&#45;&gt;AppModule</title>
<path fill="none" stroke="#000000" d="M70,-122.2843C70,-143.3211 70,-175 70,-175 70,-175 544.286,-175 544.286,-175"/>
<polygon fill="#000000" stroke="#000000" points="544.286,-178.5001 554.286,-175 544.286,-171.5001 544.286,-178.5001"/>
</g>
<!-- ApplicationsModule  -->
<g id="node12" class="node">
<title>ApplicationsModule </title>
<polygon fill="#fb8072" stroke="#000000" points="827.0932,-252 692.9068,-252 692.9068,-216 827.0932,-216 827.0932,-252"/>
<text text-anchor="middle" x="760" y="-229.8" font-family="Times,serif" font-size="14.00" fill="#000000">ApplicationsModule </text>
</g>
<!-- AppModule&#45;&gt;ApplicationsModule  -->
<g id="edge11" class="edge">
<title>AppModule&#45;&gt;ApplicationsModule </title>
<path fill="none" stroke="#000000" stroke-dasharray="5,2" d="M637.842,-181C668.296,-181 704.2234,-181 704.2234,-181 704.2234,-181 704.2234,-205.7604 704.2234,-205.7604"/>
<polygon fill="#000000" stroke="#000000" points="700.7234,-205.7604 704.2234,-215.7604 707.7234,-205.7604 700.7234,-205.7604"/>
</g>
<!-- Logger  -->
<g id="node13" class="node">
<title>Logger </title>
<polygon fill="#fb8072" stroke="#000000" points="674.9278,-252 615.0722,-252 615.0722,-216 674.9278,-216 674.9278,-252"/>
<text text-anchor="middle" x="645" y="-229.8" font-family="Times,serif" font-size="14.00" fill="#000000">Logger </text>
</g>
<!-- AppModule&#45;&gt;Logger  -->
<g id="edge12" class="edge">
<title>AppModule&#45;&gt;Logger </title>
<path fill="none" stroke="#000000" stroke-dasharray="5,2" d="M626.4322,-187.1061C626.4322,-187.1061 626.4322,-205.991 626.4322,-205.991"/>
<polygon fill="#000000" stroke="#000000" points="622.9322,-205.9909 626.4322,-215.991 629.9322,-205.991 622.9322,-205.9909"/>
</g>
<!-- MailerModule  -->
<g id="node14" class="node">
<title>MailerModule </title>
<polygon fill="#fb8072" stroke="#000000" points="597.3661,-252 496.6339,-252 496.6339,-216 597.3661,-216 597.3661,-252"/>
<text text-anchor="middle" x="547" y="-229.8" font-family="Times,serif" font-size="14.00" fill="#000000">MailerModule </text>
</g>
<!-- AppModule&#45;&gt;MailerModule  -->
<g id="edge13" class="edge">
<title>AppModule&#45;&gt;MailerModule </title>
<path fill="none" stroke="#000000" stroke-dasharray="5,2" d="M575.6773,-187.1061C575.6773,-187.1061 575.6773,-205.991 575.6773,-205.991"/>
<polygon fill="#000000" stroke="#000000" points="572.1773,-205.9909 575.6773,-215.991 579.1773,-205.991 572.1773,-205.9909"/>
</g>
<!-- UsersModule  -->
<g id="node15" class="node">
<title>UsersModule </title>
<polygon fill="#fb8072" stroke="#000000" points="478.4208,-252 383.5792,-252 383.5792,-216 478.4208,-216 478.4208,-252"/>
<text text-anchor="middle" x="431" y="-229.8" font-family="Times,serif" font-size="14.00" fill="#000000">UsersModule </text>
</g>
<!-- AppModule&#45;&gt;UsersModule  -->
<g id="edge14" class="edge">
<title>AppModule&#45;&gt;UsersModule </title>
<path fill="none" stroke="#000000" stroke-dasharray="5,2" d="M554.3404,-181C519.324,-181 474.9469,-181 474.9469,-181 474.9469,-181 474.9469,-205.7604 474.9469,-205.7604"/>
<polygon fill="#000000" stroke="#000000" points="471.447,-205.7604 474.9469,-215.7604 478.447,-205.7604 471.447,-205.7604"/>
</g>
</g>
</svg>
